<svg width="624" height="351" xmlns="http://www.w3.org/2000/svg" xmlns:xlink="http://www.w3.org/1999/xlink" xml:space="preserve" overflow="hidden"><g><path d="M0 0 624 0 624 351 0 351Z" fill="#FDFAF6"/><path d="M113.521 0 114.66 0 114.446 4.22822C108.544 62.2309 59.4691 107.64 5.1123e-05 107.64L5.1123e-05 106.5C58.8813 106.5 107.469 61.5411 113.313 4.11199ZM107.258 0 108.402 0 108.22 3.58893C102.639 58.436 56.2336 101.375 5.1123e-05 101.375L5.1123e-05 100.235C55.6458 100.235 101.56 57.7461 107.082 3.4774ZM100.999 0 102.138 0 101.989 2.94881C96.7294 54.6395 52.998 95.1038 5.1123e-05 95.1038L5.1123e-05 93.9635C52.4103 93.9635 95.6545 53.9447 100.856 2.83165ZM94.7411 0 95.8799 0 95.7629 2.30941C90.8248 50.8445 49.7625 88.8389 0 88.8389L0 87.6985C49.1692 87.6985 89.7491 50.1549 94.6296 2.19316ZM88.477 0 89.6212 0 89.537 1.66914C84.9194 47.0486 46.5269 82.5731 0 82.5731L0 81.4328C45.9337 81.4328 83.8391 46.3588 88.3982 1.55766ZM82.2182 0 83.357 0 83.3056 1.0281C79.0093 43.247 43.2859 76.3019 0 76.3019L0 75.1617C42.6982 75.1617 77.9345 42.5574 82.1722 0.911906ZM75.9602 0 77.099 0 77.0794 0.3888C73.1041 39.4522 40.0506 70.0371 0 70.0371L0 68.8969C39.4627 68.8969 72.0296 38.7625 75.9464 0.272559ZM69.6597 0 70.8153 0 69.7725 6.8211C63.1207 39.2809 34.3656 63.7721 0 63.7721L0 62.6319C33.812 62.6319 62.106 38.5375 68.6512 6.59742ZM63.3351 0 64.4859 0 63.636 5.55939C57.5688 35.1656 31.3409 57.5009 0 57.5009L0 56.3607C30.7922 56.3607 56.5596 34.4177 62.5203 5.33014ZM57.0112 0 58.162 0 57.5049 4.29758C52.0223 31.0512 28.321 51.2349 0 51.2349L0 50.0948C27.7724 50.0948 51.0132 30.3034 56.3892 4.06843ZM50.6821 0 51.8386 0 51.3742 3.03685C46.4759 26.9378 25.3012 44.9701 0 44.9701L0 43.8299C24.7525 43.8299 45.4622 26.1901 50.2529 2.80764ZM44.278 0 45.4168 0 45.2375 1.77509C40.9237 22.8225 22.2763 38.6987 0 38.6987L0 37.5586C21.7327 37.5586 39.9159 22.0703 44.122 1.5442ZM38.0198 0 39.1588 0 39.1069 0.514305C35.3786 18.7092 19.2615 32.4339 0 32.4339L0 31.2937C18.7078 31.2937 34.3682 17.9613 37.991 0.285099ZM31.5512 0 32.7437 0 31.0118 5.57434C25.895 17.6654 13.9214 26.1681 0 26.1681L0 25.0279C13.4469 25.0279 25.014 16.8134 29.9571 5.13139ZM25.0278 0 26.2153 0 25.2405 3.13707C21.0752 12.9785 11.3287 19.8973 0 19.8973L0 18.7571C10.8585 18.7571 20.1995 12.1233 24.1913 2.69166ZM18.5048 0 19.6916 0 19.4746 0.697956C16.2607 8.29054 8.74021 13.632 0 13.632L0 12.4918C8.27003 12.4918 15.385 7.43864 18.4255 0.255003ZM11.191 0 12.7664 0 12.3366 0.792082C9.6603 4.75554 5.13014 7.36714 0 7.36714L0 6.22694C3.78775 6.22694 7.22317 4.6851 9.71162 2.19455Z" fill="#EEF3FA" fill-rule="evenodd"/><text fill="#1F2C8F" font-family="Arial Black,Arial Black_MSFontService,sans-serif" font-weight="900" font-size="25" transform="matrix(0.78 0 0 0.78 179.977 54)">ASP</text><text fill="#1F2C8F" font-family="Arial Black,Arial Black_MSFontService,sans-serif" font-weight="900" font-size="25" transform="matrix(0.78 0 0 0.78 222.877 54)">.</text><text fill="#1F2C8F" font-family="Arial Black,Arial Black_MSFontService,sans-serif" font-weight="900" font-size="25" transform="matrix(0.78 0 0 0.78 229.117 54)">NET PERFORMANCE</text><g><path d="M161.07 124.41 161.07 310.83M207.09 124.41 207.09 310.83M253.89 124.41 253.89 310.83M300.69 124.41 300.69 310.83M346.71 124.41 346.71 310.83M393.51 124.41 393.51 310.83M439.53 124.41 439.53 310.83M486.33 124.41 486.33 310.83M532.35 124.41 532.35 310.83M579.15 124.41 579.15 310.83" stroke="#D9D9D9" stroke-width="0.4875" stroke-linejoin="round" stroke-miterlimit="10" fill="none"/></g><g><path d="M529.62 280.8 114.66 280.8 114.66 247.26 529.62 247.26ZM490.62 187.98 114.66 187.98 114.66 154.44 490.62 154.44Z" fill="#CCBE89"/></g><g><path d="M0 0 5.11811e-05 186.42" stroke="#202C8F" stroke-width="0.4875" stroke-linejoin="round" stroke-miterlimit="10" fill="none" fill-rule="evenodd" transform="matrix(1 0 0 -1 114.27 310.83)"/></g><g><text fill="#1F2C8F" font-family="Sabon Next LT,Sabon Next LT_MSFontService,sans-serif" font-weight="400" font-size="10" transform="matrix(0.78 0 0 0.78 533.413 267)">178</text><text fill="#1F2C8F" font-family="Sabon Next LT,Sabon Next LT_MSFontService,sans-serif" font-weight="400" font-size="10" transform="matrix(0.78 0 0 0.78 545.113 267)">,</text><text fill="#1F2C8F" font-family="Sabon Next LT,Sabon Next LT_MSFontService,sans-serif" font-weight="400" font-size="10" transform="matrix(0.78 0 0 0.78 547.453 267)">620</text></g><g><text fill="#1F2C8F" font-family="Sabon Next LT,Sabon Next LT_MSFontService,sans-serif" font-weight="400" font-size="10" transform="matrix(0.78 0 0 0.78 494.846 174)">162</text><text fill="#1F2C8F" font-family="Sabon Next LT,Sabon Next LT_MSFontService,sans-serif" font-weight="400" font-size="10" transform="matrix(0.78 0 0 0.78 506.546 174)">,</text><text fill="#1F2C8F" font-family="Sabon Next LT,Sabon Next LT_MSFontService,sans-serif" font-weight="400" font-size="10" transform="matrix(0.78 0 0 0.78 508.886 174)">019</text></g><g><text fill="#1F2C8F" font-family="Sabon Next LT,Sabon Next LT_MSFontService,sans-serif" font-weight="400" font-size="10" transform="matrix(0.78 0 0 0.78 111.629 324)">0</text></g><g><text fill="#1F2C8F" font-family="Sabon Next LT,Sabon Next LT_MSFontService,sans-serif" font-weight="400" font-size="10" transform="matrix(0.78 0 0 0.78 149.338 324)">20</text><text fill="#1F2C8F" font-family="Sabon Next LT,Sabon Next LT_MSFontService,sans-serif" font-weight="400" font-size="10" transform="matrix(0.78 0 0 0.78 157.138 324)">,</text><text fill="#1F2C8F" font-family="Sabon Next LT,Sabon Next LT_MSFontService,sans-serif" font-weight="400" font-size="10" transform="matrix(0.78 0 0 0.78 159.478 324)">000</text></g><g><text fill="#1F2C8F" font-family="Sabon Next LT,Sabon Next LT_MSFontService,sans-serif" font-weight="400" font-size="10" transform="matrix(0.78 0 0 0.78 195.802 324)">40</text><text fill="#1F2C8F" font-family="Sabon Next LT,Sabon Next LT_MSFontService,sans-serif" font-weight="400" font-size="10" transform="matrix(0.78 0 0 0.78 203.602 324)">,</text><text fill="#1F2C8F" font-family="Sabon Next LT,Sabon Next LT_MSFontService,sans-serif" font-weight="400" font-size="10" transform="matrix(0.78 0 0 0.78 205.942 324)">000</text></g><g><text fill="#1F2C8F" font-family="Sabon Next LT,Sabon Next LT_MSFontService,sans-serif" font-weight="400" font-size="10" transform="matrix(0.78 0 0 0.78 242.265 324)">60</text><text fill="#1F2C8F" font-family="Sabon Next LT,Sabon Next LT_MSFontService,sans-serif" font-weight="400" font-size="10" transform="matrix(0.78 0 0 0.78 250.065 324)">,</text><text fill="#1F2C8F" font-family="Sabon Next LT,Sabon Next LT_MSFontService,sans-serif" font-weight="400" font-size="10" transform="matrix(0.78 0 0 0.78 252.405 324)">000</text></g><g><text fill="#1F2C8F" font-family="Sabon Next LT,Sabon Next LT_MSFontService,sans-serif" font-weight="400" font-size="10" transform="matrix(0.78 0 0 0.78 288.729 324)">80</text><text fill="#1F2C8F" font-family="Sabon Next LT,Sabon Next LT_MSFontService,sans-serif" font-weight="400" font-size="10" transform="matrix(0.78 0 0 0.78 296.529 324)">,</text><text fill="#1F2C8F" font-family="Sabon Next LT,Sabon Next LT_MSFontService,sans-serif" font-weight="400" font-size="10" transform="matrix(0.78 0 0 0.78 298.869 324)">000</text></g><g><text fill="#1F2C8F" font-family="Sabon Next LT,Sabon Next LT_MSFontService,sans-serif" font-weight="400" font-size="10" transform="matrix(0.78 0 0 0.78 333.247 324)">100</text><text fill="#1F2C8F" font-family="Sabon Next LT,Sabon Next LT_MSFontService,sans-serif" font-weight="400" font-size="10" transform="matrix(0.78 0 0 0.78 344.947 324)">,</text><text fill="#1F2C8F" font-family="Sabon Next LT,Sabon Next LT_MSFontService,sans-serif" font-weight="400" font-size="10" transform="matrix(0.78 0 0 0.78 347.287 324)">000</text></g><g><text fill="#1F2C8F" font-family="Sabon Next LT,Sabon Next LT_MSFontService,sans-serif" font-weight="400" font-size="10" transform="matrix(0.78 0 0 0.78 379.711 324)">120</text><text fill="#1F2C8F" font-family="Sabon Next LT,Sabon Next LT_MSFontService,sans-serif" font-weight="400" font-size="10" transform="matrix(0.78 0 0 0.78 391.411 324)">,</text><text fill="#1F2C8F" font-family="Sabon Next LT,Sabon Next LT_MSFontService,sans-serif" font-weight="400" font-size="10" transform="matrix(0.78 0 0 0.78 393.751 324)">000</text></g><g><text fill="#1F2C8F" font-family="Sabon Next LT,Sabon Next LT_MSFontService,sans-serif" font-weight="400" font-size="10" transform="matrix(0.78 0 0 0.78 426.174 324)">140</text><text fill="#1F2C8F" font-family="Sabon Next LT,Sabon Next LT_MSFontService,sans-serif" font-weight="400" font-size="10" transform="matrix(0.78 0 0 0.78 437.874 324)">,</text><text fill="#1F2C8F" font-family="Sabon Next LT,Sabon Next LT_MSFontService,sans-serif" font-weight="400" font-size="10" transform="matrix(0.78 0 0 0.78 440.214 324)">000</text></g><g><text fill="#1F2C8F" font-family="Sabon Next LT,Sabon Next LT_MSFontService,sans-serif" font-weight="400" font-size="10" transform="matrix(0.78 0 0 0.78 472.638 324)">160</text><text fill="#1F2C8F" font-family="Sabon Next LT,Sabon Next LT_MSFontService,sans-serif" font-weight="400" font-size="10" transform="matrix(0.78 0 0 0.78 484.338 324)">,</text><text fill="#1F2C8F" font-family="Sabon Next LT,Sabon Next LT_MSFontService,sans-serif" font-weight="400" font-size="10" transform="matrix(0.78 0 0 0.78 486.678 324)">000</text></g><g><text fill="#1F2C8F" font-family="Sabon Next LT,Sabon Next LT_MSFontService,sans-serif" font-weight="400" font-size="10" transform="matrix(0.78 0 0 0.78 519.102 324)">180</text><text fill="#1F2C8F" font-family="Sabon Next LT,Sabon Next LT_MSFontService,sans-serif" font-weight="400" font-size="10" transform="matrix(0.78 0 0 0.78 530.802 324)">,</text><text fill="#1F2C8F" font-family="Sabon Next LT,Sabon Next LT_MSFontService,sans-serif" font-weight="400" font-size="10" transform="matrix(0.78 0 0 0.78 533.142 324)">000</text></g><g><text fill="#1F2C8F" font-family="Sabon Next LT,Sabon Next LT_MSFontService,sans-serif" font-weight="400" font-size="10" transform="matrix(0.78 0 0 0.78 565.565 324)">200</text><text fill="#1F2C8F" font-family="Sabon Next LT,Sabon Next LT_MSFontService,sans-serif" font-weight="400" font-size="10" transform="matrix(0.78 0 0 0.78 577.265 324)">,</text><text fill="#1F2C8F" font-family="Sabon Next LT,Sabon Next LT_MSFontService,sans-serif" font-weight="400" font-size="10" transform="matrix(0.78 0 0 0.78 579.605 324)">000</text></g><g><text fill="#1F2C8F" font-family="Sabon Next LT,Sabon Next LT_MSFontService,sans-serif" font-weight="400" font-size="10" transform="matrix(0.78 0 0 0.78 86.4185 266)">Async</text></g><g><text fill="#1F2C8F" font-family="Sabon Next LT,Sabon Next LT_MSFontService,sans-serif" font-weight="400" font-size="10" transform="matrix(0.78 0 0 0.78 32.7417 173)">Sync on Green Thread</text></g><g><path d="M303.42 329.94 308.1 329.94 308.1 334.62 303.42 334.62Z" fill="#CCBE89"/></g><g><text fill="#1F2C8F" font-family="Sabon Next LT,Sabon Next LT_MSFontService,sans-serif" font-weight="400" font-size="10" transform="matrix(0.78 0 0 0.78 310.488 335)">RPS</text></g><text fill="#1F2C8F" font-family="Arial,Arial_MSFontService,sans-serif" font-weight="400" font-size="10" transform="matrix(0.78 0 0 0.78 581.162 34)">24</text><text font-family="Sabon Next LT,Sabon Next LT_MSFontService,sans-serif" font-weight="400" font-size="15" transform="matrix(0.78 0 0 0.78 47.9345 76)">Microbenchmark of plaintext measuring requests per second</text></g></svg>