<svg width="624" height="351" xmlns="http://www.w3.org/2000/svg" xmlns:xlink="http://www.w3.org/1999/xlink" xml:space="preserve" overflow="hidden"><g><path d="M0 0 624 0 624 351 0 351Z" fill="#FDFAF6"/><text fill="#1F2C8F" font-family="Arial Black,Arial Black_MSFontService,sans-serif" font-weight="900" font-size="37" transform="matrix(0.78 0 0 0.78 159.102 40)">EXPERIMENTAL</text><text fill="#1F2C8F" font-family="Arial Black,Arial Black_MSFontService,sans-serif" font-weight="900" font-size="37" transform="matrix(0.78 0 0 0.78 159.102 74)">STACK LAYOUT</text><text font-family="Sabon Next LT,Sabon Next LT_MSFontService,sans-serif" font-weight="400" font-size="15" transform="matrix(0.78 0 0 0.78 203.117 98)">OS Stack</text><path d="M162.63 104.13 289.77 104.13 289.77 303.81 162.63 303.81Z" stroke="#141D68" stroke-width="0.65" stroke-miterlimit="8" fill="#1F2C8F"/><path d="M164.19 106.47 287.43 106.47 287.43 122.07 164.19 122.07Z" stroke="#000000" stroke-width="0.4875" stroke-linejoin="round" stroke-miterlimit="10" fill="#FDFAF6"/><text font-family="Consolas,Consolas_MSFontService,sans-serif" font-weight="400" font-size="12" transform="matrix(0.78 0 0 0.78 217.918 117)">...</text><path d="M164.97 125.19 287.43 125.19 287.43 140.79 164.97 140.79Z" stroke="#000000" stroke-width="0.4875" stroke-linejoin="round" stroke-miterlimit="10" fill="#FDFAF6"/><text font-family="Consolas,Consolas_MSFontService,sans-serif" font-weight="400" font-size="12" transform="matrix(0.78 0 0 0.78 200.449 136)">ThreadPool</text><path d="M164.19 143.13 286.65 143.13 286.65 158.73 164.19 158.73Z" stroke="#000000" stroke-width="0.4875" stroke-linejoin="round" stroke-miterlimit="10" fill="#FDFAF6"/><text font-family="Consolas,Consolas_MSFontService,sans-serif" font-weight="400" font-size="12" transform="matrix(0.78 0 0 0.78 184.957 154)">RunAsGreenThread</text><path d="M164.97 161.07 287.43 161.07 287.43 176.67 164.97 176.67Z" stroke="#000000" stroke-width="0.4875" stroke-linejoin="round" stroke-miterlimit="10" fill="#FDFAF6"/><text font-family="Consolas,Consolas_MSFontService,sans-serif" font-weight="400" font-size="12" transform="matrix(0.78 0 0 0.78 200.449 172)">_</text><text font-family="Consolas,Consolas_MSFontService,sans-serif" font-weight="400" font-size="12" transform="matrix(0.78 0 0 0.78 205.487 172)">morestack</text><path d="M164.97 179.01 287.43 179.01 287.43 194.61 164.97 194.61Z" stroke="#000000" stroke-width="0.4875" stroke-linejoin="round" stroke-miterlimit="10" fill="#FDFAF6"/><text font-family="Consolas,Consolas_MSFontService,sans-serif" font-weight="400" font-size="12" transform="matrix(0.78 0 0 0.78 197.93 190)">SomePInvoke</text><path d="M164.97 196.95 287.43 196.95 287.43 212.55 164.97 212.55Z" stroke="#000000" stroke-width="0.4875" stroke-linejoin="round" stroke-miterlimit="10" fill="#FDFAF6"/><text font-family="Consolas,Consolas_MSFontService,sans-serif" font-weight="400" font-size="12" transform="matrix(0.78 0 0 0.78 192.893 207)">Normal C code</text><path d="M164.97 214.89 287.43 214.89 287.43 230.49 164.97 230.49Z" stroke="#000000" stroke-width="0.4875" stroke-linejoin="round" stroke-miterlimit="10" fill="#FDFAF6"/><text font-family="Consolas,Consolas_MSFontService,sans-serif" font-weight="400" font-size="12" transform="matrix(0.78 0 0 0.78 223.118 225)">…</text><path d="M164.97 232.05 287.43 232.05 287.43 247.65 164.97 247.65Z" stroke="#000000" stroke-width="0.4875" stroke-linejoin="round" stroke-miterlimit="10" fill="#FDFAF6"/><text font-family="Consolas,Consolas_MSFontService,sans-serif" font-weight="400" font-size="12" transform="matrix(0.78 0 0 0.78 195.412 243)">LeafFunction</text><path d="M313.17 104.13 439.53 104.13 439.53 303.81 313.17 303.81Z" stroke="#141D68" stroke-width="0.65" stroke-miterlimit="8" fill="#1F2C8F"/><path d="M316.29 106.47 437.97 106.47 437.97 122.07 316.29 122.07Z" stroke="#000000" stroke-width="0.4875" stroke-linejoin="round" stroke-miterlimit="10" fill="#FDFAF6"/><text font-family="Consolas,Consolas_MSFontService,sans-serif" font-weight="400" font-size="12" transform="matrix(0.78 0 0 0.78 318.823 117)">FirstFrameInGreenThread</text><path d="M316.29 125.19 437.97 125.19 437.97 140.79 316.29 140.79Z" stroke="#000000" stroke-width="0.4875" stroke-linejoin="round" stroke-miterlimit="10" fill="#FDFAF6"/><text font-family="Consolas,Consolas_MSFontService,sans-serif" font-weight="400" font-size="12" transform="matrix(0.78 0 0 0.78 354.086 136)">GreenCode</text><path d="M316.29 143.13 437.97 143.13 437.97 158.73 316.29 158.73Z" stroke="#000000" stroke-width="0.4875" stroke-linejoin="round" stroke-miterlimit="10" fill="#FDFAF6"/><text font-family="Consolas,Consolas_MSFontService,sans-serif" font-weight="400" font-size="12" transform="matrix(0.78 0 0 0.78 351.567 154)">GreenCode</text><text font-family="Consolas,Consolas_MSFontService,sans-serif" font-weight="400" font-size="12" transform="matrix(0.78 0 0 0.78 400.707 154)">2</text><path d="M316.29 161.07 437.97 161.07 437.97 176.67 316.29 176.67Z" stroke="#000000" stroke-width="0.4875" stroke-linejoin="round" stroke-miterlimit="10" fill="#FDFAF6"/><text font-family="Consolas,Consolas_MSFontService,sans-serif" font-weight="400" font-size="12" transform="matrix(0.78 0 0 0.78 351.567 172)">GreenCode</text><text font-family="Consolas,Consolas_MSFontService,sans-serif" font-weight="400" font-size="12" transform="matrix(0.78 0 0 0.78 400.707 172)">3</text><path d="M316.29 179.01 437.97 179.01 437.97 194.61 316.29 194.61Z" stroke="#000000" stroke-width="0.4875" stroke-linejoin="round" stroke-miterlimit="10" fill="#FDFAF6"/><text font-family="Consolas,Consolas_MSFontService,sans-serif" font-weight="400" font-size="12" transform="matrix(0.78 0 0 0.78 351.567 190)">GreenCode</text><text font-family="Consolas,Consolas_MSFontService,sans-serif" font-weight="400" font-size="12" transform="matrix(0.78 0 0 0.78 400.707 190)">4</text><path d="M316.29 196.95 437.97 196.95 437.97 212.55 316.29 212.55Z" stroke="#000000" stroke-width="0.4875" stroke-linejoin="round" stroke-miterlimit="10" fill="#FDFAF6"/><text font-family="Consolas,Consolas_MSFontService,sans-serif" font-weight="400" font-size="12" transform="matrix(0.78 0 0 0.78 351.567 207)">GreenCode</text><text font-family="Consolas,Consolas_MSFontService,sans-serif" font-weight="400" font-size="12" transform="matrix(0.78 0 0 0.78 400.707 207)">5</text><path d="M316.29 214.89 437.97 214.89 437.97 230.49 316.29 230.49Z" stroke="#000000" stroke-width="0.4875" stroke-linejoin="round" stroke-miterlimit="10" fill="#FDFAF6"/><text font-family="Consolas,Consolas_MSFontService,sans-serif" font-weight="400" font-size="12" transform="matrix(0.78 0 0 0.78 351.567 225)">GreenCode</text><text font-family="Consolas,Consolas_MSFontService,sans-serif" font-weight="400" font-size="12" transform="matrix(0.78 0 0 0.78 400.707 225)">6</text><path d="M316.29 232.05 437.97 232.05 437.97 247.65 316.29 247.65Z" stroke="#000000" stroke-width="0.4875" stroke-linejoin="round" stroke-miterlimit="10" fill="#FDFAF6"/><text font-family="Consolas,Consolas_MSFontService,sans-serif" font-weight="400" font-size="12" transform="matrix(0.78 0 0 0.78 351.567 243)">_</text><text font-family="Consolas,Consolas_MSFontService,sans-serif" font-weight="400" font-size="12" transform="matrix(0.78 0 0 0.78 356.604 243)">morestack</text><path d="M316.29 250.77 437.97 250.77 437.97 299.91 316.29 299.91Z" stroke="#A36565" stroke-width="0.65" stroke-miterlimit="8" fill="#DE8C8C"/><text fill="#FDFAF6" font-family="Sabon Next LT,Sabon Next LT_MSFontService,sans-serif" font-weight="400" font-size="15" transform="matrix(0.78 0 0 0.78 352.299 278)">Red Zone</text><text font-family="Sabon Next LT,Sabon Next LT_MSFontService,sans-serif" font-weight="400" font-size="15" transform="matrix(0.78 0 0 0.78 319.025 98)">Green Stack Segment </text><text font-family="Sabon Next LT,Sabon Next LT_MSFontService,sans-serif" font-weight="400" font-size="15" transform="matrix(0.78 0 0 0.78 431.345 98)">1</text><path d="M468.39 104.13 595.53 104.13 595.53 303.81 468.39 303.81Z" stroke="#141D68" stroke-width="0.65" stroke-miterlimit="8" fill="#1F2C8F"/><path d="M472.29 106.47 593.19 106.47 593.19 122.85 472.29 122.85Z" stroke="#000000" stroke-width="0.4875" stroke-linejoin="round" stroke-miterlimit="10" fill="#FDFAF6"/><text font-family="Consolas,Consolas_MSFontService,sans-serif" font-weight="400" font-size="12" transform="matrix(0.78 0 0 0.78 506.947 117)">GreenCode</text><text font-family="Consolas,Consolas_MSFontService,sans-serif" font-weight="400" font-size="12" transform="matrix(0.78 0 0 0.78 556.087 117)">7</text><path d="M472.29 125.19 593.19 125.19 593.19 140.79 472.29 140.79Z" stroke="#000000" stroke-width="0.4875" stroke-linejoin="round" stroke-miterlimit="10" fill="#FDFAF6"/><text font-family="Consolas,Consolas_MSFontService,sans-serif" font-weight="400" font-size="12" transform="matrix(0.78 0 0 0.78 506.947 136)">GreenCode</text><text font-family="Consolas,Consolas_MSFontService,sans-serif" font-weight="400" font-size="12" transform="matrix(0.78 0 0 0.78 556.087 136)">8</text><path d="M472.29 143.13 593.19 143.13 593.19 158.73 472.29 158.73Z" stroke="#000000" stroke-width="0.4875" stroke-linejoin="round" stroke-miterlimit="10" fill="#FDFAF6"/><text font-family="Consolas,Consolas_MSFontService,sans-serif" font-weight="400" font-size="12" transform="matrix(0.78 0 0 0.78 507.083 154)">GreenCode</text><text font-family="Consolas,Consolas_MSFontService,sans-serif" font-weight="400" font-size="12" transform="matrix(0.78 0 0 0.78 556.223 154)">9</text><path d="M471.51 161.07 593.19 161.07 593.19 176.67 471.51 176.67Z" stroke="#000000" stroke-width="0.4875" stroke-linejoin="round" stroke-miterlimit="10" fill="#FDFAF6"/><text font-family="Consolas,Consolas_MSFontService,sans-serif" font-weight="400" font-size="12" transform="matrix(0.78 0 0 0.78 506.812 172)">_</text><text font-family="Consolas,Consolas_MSFontService,sans-serif" font-weight="400" font-size="12" transform="matrix(0.78 0 0 0.78 511.849 172)">morestack</text><path d="M473.85 251.55 591.63 251.55 591.63 300.69 473.85 300.69Z" stroke="#A36565" stroke-width="0.65" stroke-miterlimit="8" fill="#DE8C8C"/><text fill="#FDFAF6" font-family="Sabon Next LT,Sabon Next LT_MSFontService,sans-serif" font-weight="400" font-size="15" transform="matrix(0.78 0 0 0.78 507.911 280)">Red Zone</text><text font-family="Sabon Next LT,Sabon Next LT_MSFontService,sans-serif" font-weight="400" font-size="15" transform="matrix(0.78 0 0 0.78 476.571 98)">Green Stack Segment </text><text font-family="Sabon Next LT,Sabon Next LT_MSFontService,sans-serif" font-weight="400" font-size="15" transform="matrix(0.78 0 0 0.78 588.891 98)">2</text><path d="M0 0 16.634 0 16.634 125.413" stroke="#000000" stroke-width="0.812503" stroke-miterlimit="8" fill="none" fill-rule="evenodd" transform="matrix(-1 1.22465e-16 1.22465e-16 1 471.764 114.27)"/><path d="M0 0 14.7135 0 14.7135 54.749" stroke="#000000" stroke-width="0.65" stroke-miterlimit="8" fill="none" fill-rule="evenodd" transform="matrix(-1 1.22465e-16 1.22465e-16 1 316.963 114.27)"/><path d="M287.43 186.81 302.144 186.81 302.144 318.522" stroke="#000000" stroke-width="0.65" stroke-miterlimit="8" fill="none" fill-rule="evenodd"/><path d="M0-0.325 304.69-0.325 304.69 149.566 295.448 149.566 295.448 148.916 304.365 148.916 304.039 149.241 304.039 0 304.365 0.325 0 0.325ZM299.14 152.74 294.941 149.241 299.14 145.741C299.278 145.626 299.483 145.645 299.598 145.783 299.713 145.921 299.694 146.126 299.556 146.241L295.656 149.491 295.656 148.991 299.556 152.241C299.694 152.356 299.713 152.561 299.598 152.699 299.483 152.837 299.278 152.856 299.14 152.74Z" transform="matrix(1 0 0 -1 302.25 318.111)"/><path d="M1.17448e-06-0.325 13.6557-0.32495 13.6557 0.325049-1.17448e-06 0.325ZM9.96372-3.49963 14.1633 5.11608e-05 9.96372 3.4997C9.82582 3.61461 9.62091 3.59599 9.50602 3.45809 9.39112 3.3202 9.40969 3.11527 9.54759 3.00036L13.4476-0.249623 13.4476 0.249721 9.54767-3.00029C9.40976-3.1152 9.39112-3.32013 9.50602-3.45803 9.62091-3.59592 9.82589-3.61454 9.96372-3.49963Z" transform="matrix(-1 0 0 1 455.252 239.85)"/><path d="M1.54658e-06-0.325 10.2483-0.324951 10.2483 0.325049-1.54658e-06 0.325ZM6.55638-3.49964 10.756 5.12106e-05 6.55634 3.4997C6.41845 3.61461 6.21352 3.59598 6.09861 3.45809 5.9837 3.32019 6.00233 3.11527 6.14022 3.00036L10.0402-0.249624 10.0402 0.249719 6.14025-3.0003C6.00237-3.11521 5.98373-3.32014 6.09864-3.45803 6.21355-3.59592 6.41849-3.61455 6.55638-3.49964Z" transform="matrix(-1 0 0 1 302.085 168.87)"/><text font-family="Sabon Next LT,Sabon Next LT_MSFontService,sans-serif" font-weight="400" font-size="15" transform="matrix(0.78 0 0 0.78 22.2149 62)">Developer View of Stack</text><text font-family="Consolas,Consolas_MSFontService,sans-serif" font-weight="400" font-size="12" transform="matrix(0.78 0 0 0.78 22.2149 92)">LeafFunction</text><text font-family="Consolas,Consolas_MSFontService,sans-serif" font-weight="400" font-size="12" transform="matrix(0.78 0 0 0.78 22.2149 102)">…</text><text font-family="Consolas,Consolas_MSFontService,sans-serif" font-weight="400" font-size="12" transform="matrix(0.78 0 0 0.78 22.2149 112)">Normal C Code</text><text font-family="Consolas,Consolas_MSFontService,sans-serif" font-weight="400" font-size="12" transform="matrix(0.78 0 0 0.78 22.2149 122)">SomePinvoke</text><text font-family="Consolas,Consolas_MSFontService,sans-serif" font-weight="400" font-size="12" transform="matrix(0.78 0 0 0.78 22.2149 131)">GreenCode</text><text font-family="Consolas,Consolas_MSFontService,sans-serif" font-weight="400" font-size="12" transform="matrix(0.78 0 0 0.78 71.3549 131)">9</text><text font-family="Consolas,Consolas_MSFontService,sans-serif" font-weight="400" font-size="12" transform="matrix(0.78 0 0 0.78 22.2149 141)">GreenCode</text><text font-family="Consolas,Consolas_MSFontService,sans-serif" font-weight="400" font-size="12" transform="matrix(0.78 0 0 0.78 71.3549 141)">8</text><text font-family="Consolas,Consolas_MSFontService,sans-serif" font-weight="400" font-size="12" transform="matrix(0.78 0 0 0.78 22.2149 151)">GreenCode</text><text font-family="Consolas,Consolas_MSFontService,sans-serif" font-weight="400" font-size="12" transform="matrix(0.78 0 0 0.78 71.3549 151)">7</text><text font-family="Consolas,Consolas_MSFontService,sans-serif" font-weight="400" font-size="12" transform="matrix(0.78 0 0 0.78 22.2149 161)">GreenCode</text><text font-family="Consolas,Consolas_MSFontService,sans-serif" font-weight="400" font-size="12" transform="matrix(0.78 0 0 0.78 71.3549 161)">6</text><text font-family="Consolas,Consolas_MSFontService,sans-serif" font-weight="400" font-size="12" transform="matrix(0.78 0 0 0.78 22.2149 171)">GreenCode</text><text font-family="Consolas,Consolas_MSFontService,sans-serif" font-weight="400" font-size="12" transform="matrix(0.78 0 0 0.78 71.3549 171)">5</text><text font-family="Consolas,Consolas_MSFontService,sans-serif" font-weight="400" font-size="12" transform="matrix(0.78 0 0 0.78 22.2149 180)">GreenCode</text><text font-family="Consolas,Consolas_MSFontService,sans-serif" font-weight="400" font-size="12" transform="matrix(0.78 0 0 0.78 71.3549 180)">4</text><text font-family="Consolas,Consolas_MSFontService,sans-serif" font-weight="400" font-size="12" transform="matrix(0.78 0 0 0.78 22.2149 190)">GreenCode</text><text font-family="Consolas,Consolas_MSFontService,sans-serif" font-weight="400" font-size="12" transform="matrix(0.78 0 0 0.78 71.3549 190)">3</text><text font-family="Consolas,Consolas_MSFontService,sans-serif" font-weight="400" font-size="12" transform="matrix(0.78 0 0 0.78 22.2149 200)">GreenCode</text><text font-family="Consolas,Consolas_MSFontService,sans-serif" font-weight="400" font-size="12" transform="matrix(0.78 0 0 0.78 71.3549 200)">2</text><text font-family="Consolas,Consolas_MSFontService,sans-serif" font-weight="400" font-size="12" transform="matrix(0.78 0 0 0.78 22.2149 210)">GreenCode</text><text font-family="Consolas,Consolas_MSFontService,sans-serif" font-weight="400" font-size="12" transform="matrix(0.78 0 0 0.78 22.2149 220)">RunAsGreenThread</text><text font-family="Consolas,Consolas_MSFontService,sans-serif" font-weight="400" font-size="12" transform="matrix(0.78 0 0 0.78 22.2149 229)">ThreadPool</text><text font-family="Consolas,Consolas_MSFontService,sans-serif" font-weight="400" font-size="12" transform="matrix(0.78 0 0 0.78 22.2149 239)">…</text><text font-family="Sabon Next LT,Sabon Next LT_MSFontService,sans-serif" font-weight="400" font-size="12" transform="matrix(0.78 0 0 0.78 22.2149 259)">Note</text><text font-family="Sabon Next LT,Sabon Next LT_MSFontService,sans-serif" font-weight="400" font-size="12" transform="matrix(0.78 0 0 0.78 41.7149 259)">: </text><text font-family="Sabon Next LT,Sabon Next LT_MSFontService,sans-serif" font-weight="400" font-size="12" transform="matrix(0.78 0 0 0.78 46.3949 259)">_</text><text font-family="Sabon Next LT,Sabon Next LT_MSFontService,sans-serif" font-weight="400" font-size="12" transform="matrix(0.78 0 0 0.78 50.4899 259)">morestack</text><text font-family="Sabon Next LT,Sabon Next LT_MSFontService,sans-serif" font-weight="400" font-size="12" transform="matrix(0.78 0 0 0.78 92.0088 259)">frames and</text><text font-family="Sabon Next LT,Sabon Next LT_MSFontService,sans-serif" font-weight="400" font-size="12" transform="matrix(0.78 0 0 0.78 22.2149 269)">FirstFrameInGreenThread</text><text font-family="Sabon Next LT,Sabon Next LT_MSFontService,sans-serif" font-weight="400" font-size="12" transform="matrix(0.78 0 0 0.78 125.12 269)">are</text><text font-family="Sabon Next LT,Sabon Next LT_MSFontService,sans-serif" font-weight="400" font-size="12" transform="matrix(0.78 0 0 0.78 22.2149 278)">elided from the developer visible</text><text font-family="Sabon Next LT,Sabon Next LT_MSFontService,sans-serif" font-weight="400" font-size="12" transform="matrix(0.78 0 0 0.78 22.2149 289)">view</text><text font-family="Sabon Next LT,Sabon Next LT_MSFontService,sans-serif" font-weight="400" font-size="12" transform="matrix(0.78 0 0 0.78 40.1549 289)">.</text><text font-family="Arial,Arial_MSFontService,sans-serif" font-weight="400" font-size="10" transform="matrix(0.78 0 0 0.78 581.451 34)">11</text></g></svg>