<svg width="624" height="351" xmlns="http://www.w3.org/2000/svg" xmlns:xlink="http://www.w3.org/1999/xlink" xml:space="preserve" overflow="hidden"><g><path d="M0 0 624 0 624 351 0 351Z" fill="#FDFAF6"/><text fill="#1F2C8F" font-family="Arial Black,Arial Black_MSFontService,sans-serif" font-weight="900" font-size="37" transform="matrix(0.78 0 0 0.78 159.102 40)">AFTER THE</text><text fill="#1F2C8F" font-family="Arial Black,Arial Black_MSFontService,sans-serif" font-weight="900" font-size="37" transform="matrix(0.78 0 0 0.78 159.102 74)">YIELD</text><text font-family="Sabon Next LT,Sabon Next LT_MSFontService,sans-serif" font-weight="400" font-size="15" transform="matrix(0.78 0 0 0.78 203.117 98)">OS Stack</text><path d="M162.63 104.13 289.77 104.13 289.77 303.81 162.63 303.81Z" stroke="#141D68" stroke-width="0.65" stroke-miterlimit="8" fill="#1F2C8F"/><path d="M164.19 107.25 287.43 107.25 287.43 122.85 164.19 122.85Z" stroke="#000000" stroke-width="0.4875" stroke-linejoin="round" stroke-miterlimit="10" fill="#FDFAF6"/><text font-family="Consolas,Consolas_MSFontService,sans-serif" font-weight="400" font-size="12" transform="matrix(0.78 0 0 0.78 217.918 118)">...</text><path d="M164.97 125.19 287.43 125.19 287.43 140.79 164.97 140.79Z" stroke="#000000" stroke-width="0.4875" stroke-linejoin="round" stroke-miterlimit="10" fill="#FDFAF6"/><text font-family="Consolas,Consolas_MSFontService,sans-serif" font-weight="400" font-size="12" transform="matrix(0.78 0 0 0.78 200.449 136)">ThreadPool</text><path d="M164.19 143.91 286.65 143.91 286.65 159.51 164.19 159.51Z" stroke="#000000" stroke-width="0.4875" stroke-linejoin="round" stroke-miterlimit="10" fill="#FDFAF6"/><text font-family="Consolas,Consolas_MSFontService,sans-serif" font-weight="400" font-size="12" transform="matrix(0.78 0 0 0.78 184.957 154)">RunAsGreenThread</text><path d="M313.17 104.13 439.53 104.13 439.53 303.81 313.17 303.81Z" stroke="#141D68" stroke-width="0.65" stroke-miterlimit="8" fill="#1F2C8F"/><path d="M316.29 107.25 437.97 107.25 437.97 122.85 316.29 122.85Z" stroke="#000000" stroke-width="0.4875" stroke-linejoin="round" stroke-miterlimit="10" fill="#FDFAF6"/><text font-family="Consolas,Consolas_MSFontService,sans-serif" font-weight="400" font-size="12" transform="matrix(0.78 0 0 0.78 318.823 118)">FirstFrameInGreenThread</text><path d="M316.29 125.19 437.97 125.19 437.97 140.79 316.29 140.79Z" stroke="#000000" stroke-width="0.4875" stroke-linejoin="round" stroke-miterlimit="10" fill="#FDFAF6"/><text font-family="Consolas,Consolas_MSFontService,sans-serif" font-weight="400" font-size="12" transform="matrix(0.78 0 0 0.78 354.086 136)">GreenCode</text><path d="M316.29 143.91 437.97 143.91 437.97 159.51 316.29 159.51Z" stroke="#000000" stroke-width="0.4875" stroke-linejoin="round" stroke-miterlimit="10" fill="#FDFAF6"/><text font-family="Consolas,Consolas_MSFontService,sans-serif" font-weight="400" font-size="12" transform="matrix(0.78 0 0 0.78 351.567 154)">GreenCode</text><text font-family="Consolas,Consolas_MSFontService,sans-serif" font-weight="400" font-size="12" transform="matrix(0.78 0 0 0.78 400.707 154)">2</text><path d="M316.29 161.07 437.97 161.07 437.97 177.45 316.29 177.45Z" stroke="#000000" stroke-width="0.4875" stroke-linejoin="round" stroke-miterlimit="10" fill="#FDFAF6"/><text font-family="Consolas,Consolas_MSFontService,sans-serif" font-weight="400" font-size="12" transform="matrix(0.78 0 0 0.78 351.567 172)">GreenCode</text><text font-family="Consolas,Consolas_MSFontService,sans-serif" font-weight="400" font-size="12" transform="matrix(0.78 0 0 0.78 400.707 172)">3</text><path d="M316.29 179.01 437.97 179.01 437.97 194.61 316.29 194.61Z" stroke="#000000" stroke-width="0.4875" stroke-linejoin="round" stroke-miterlimit="10" fill="#FDFAF6"/><text font-family="Consolas,Consolas_MSFontService,sans-serif" font-weight="400" font-size="12" transform="matrix(0.78 0 0 0.78 351.567 190)">GreenCode</text><text font-family="Consolas,Consolas_MSFontService,sans-serif" font-weight="400" font-size="12" transform="matrix(0.78 0 0 0.78 400.707 190)">4</text><path d="M316.29 196.95 437.97 196.95 437.97 213.33 316.29 213.33Z" stroke="#000000" stroke-width="0.4875" stroke-linejoin="round" stroke-miterlimit="10" fill="#FDFAF6"/><text font-family="Consolas,Consolas_MSFontService,sans-serif" font-weight="400" font-size="12" transform="matrix(0.78 0 0 0.78 351.567 207)">GreenCode</text><text font-family="Consolas,Consolas_MSFontService,sans-serif" font-weight="400" font-size="12" transform="matrix(0.78 0 0 0.78 400.707 207)">5</text><path d="M316.29 215.67 437.97 215.67 437.97 231.27 316.29 231.27Z" stroke="#000000" stroke-width="0.4875" stroke-linejoin="round" stroke-miterlimit="10" fill="#FDFAF6"/><text font-family="Consolas,Consolas_MSFontService,sans-serif" font-weight="400" font-size="12" transform="matrix(0.78 0 0 0.78 351.567 226)">GreenCode</text><text font-family="Consolas,Consolas_MSFontService,sans-serif" font-weight="400" font-size="12" transform="matrix(0.78 0 0 0.78 400.707 226)">6</text><path d="M316.29 232.83 437.97 232.83 437.97 248.43 316.29 248.43Z" stroke="#000000" stroke-width="0.4875" stroke-linejoin="round" stroke-miterlimit="10" fill="#FDFAF6"/><text font-family="Consolas,Consolas_MSFontService,sans-serif" font-weight="400" font-size="12" transform="matrix(0.78 0 0 0.78 351.567 243)">_</text><text font-family="Consolas,Consolas_MSFontService,sans-serif" font-weight="400" font-size="12" transform="matrix(0.78 0 0 0.78 356.604 243)">morestack</text><path d="M316.29 251.55 437.97 251.55 437.97 299.91 316.29 299.91Z" stroke="#A36565" stroke-width="0.65" stroke-miterlimit="8" fill="#DE8C8C"/><text fill="#FDFAF6" font-family="Sabon Next LT,Sabon Next LT_MSFontService,sans-serif" font-weight="400" font-size="15" transform="matrix(0.78 0 0 0.78 352.299 279)">Red Zone</text><text font-family="Sabon Next LT,Sabon Next LT_MSFontService,sans-serif" font-weight="400" font-size="15" transform="matrix(0.78 0 0 0.78 319.025 98)">Green Stack Segment </text><text font-family="Sabon Next LT,Sabon Next LT_MSFontService,sans-serif" font-weight="400" font-size="15" transform="matrix(0.78 0 0 0.78 431.345 98)">1</text><path d="M469.95 104.13 596.31 104.13 596.31 303.81 469.95 303.81Z" stroke="#141D68" stroke-width="0.65" stroke-miterlimit="8" fill="#1F2C8F"/><path d="M472.29 107.25 593.19 107.25 593.19 122.85 472.29 122.85Z" stroke="#000000" stroke-width="0.4875" stroke-linejoin="round" stroke-miterlimit="10" fill="#FDFAF6"/><text font-family="Consolas,Consolas_MSFontService,sans-serif" font-weight="400" font-size="12" transform="matrix(0.78 0 0 0.78 506.947 118)">GreenCode</text><text font-family="Consolas,Consolas_MSFontService,sans-serif" font-weight="400" font-size="12" transform="matrix(0.78 0 0 0.78 556.087 118)">7</text><path d="M472.29 125.97 593.19 125.97 593.19 141.57 472.29 141.57Z" stroke="#000000" stroke-width="0.4875" stroke-linejoin="round" stroke-miterlimit="10" fill="#FDFAF6"/><text font-family="Consolas,Consolas_MSFontService,sans-serif" font-weight="400" font-size="12" transform="matrix(0.78 0 0 0.78 506.947 137)">GreenCode</text><text font-family="Consolas,Consolas_MSFontService,sans-serif" font-weight="400" font-size="12" transform="matrix(0.78 0 0 0.78 556.087 137)">8</text><path d="M472.29 143.91 593.19 143.91 593.19 159.51 472.29 159.51Z" stroke="#000000" stroke-width="0.4875" stroke-linejoin="round" stroke-miterlimit="10" fill="#FDFAF6"/><text font-family="Consolas,Consolas_MSFontService,sans-serif" font-weight="400" font-size="12" transform="matrix(0.78 0 0 0.78 489.452 154)">GreenThread</text><text font-family="Consolas,Consolas_MSFontService,sans-serif" font-weight="400" font-size="12" transform="matrix(0.78 0 0 0.78 549.512 154)">_</text><text font-family="Consolas,Consolas_MSFontService,sans-serif" font-weight="400" font-size="12" transform="matrix(0.78 0 0 0.78 554.972 154)">Yield</text><path d="M473.85 252.33 591.63 252.33 591.63 300.69 473.85 300.69Z" stroke="#A36565" stroke-width="0.65" stroke-miterlimit="8" fill="#DE8C8C"/><text fill="#FDFAF6" font-family="Sabon Next LT,Sabon Next LT_MSFontService,sans-serif" font-weight="400" font-size="15" transform="matrix(0.78 0 0 0.78 507.911 280)">Red Zone</text><text font-family="Sabon Next LT,Sabon Next LT_MSFontService,sans-serif" font-weight="400" font-size="15" transform="matrix(0.78 0 0 0.78 476.571 98)">Green Stack Segment </text><text font-family="Sabon Next LT,Sabon Next LT_MSFontService,sans-serif" font-weight="400" font-size="15" transform="matrix(0.78 0 0 0.78 588.891 98)">2</text><path d="M0 0 16.634 0 16.634 125.413" stroke="#000000" stroke-width="0.812503" stroke-miterlimit="8" fill="none" fill-rule="evenodd" transform="matrix(-1 1.22465e-16 1.22465e-16 1 471.764 115.05)"/><path d="M0 0 14.7135 0 14.7135 54.749" stroke="#000000" stroke-width="0.65" stroke-miterlimit="8" fill="none" fill-rule="evenodd" transform="matrix(-1 1.22465e-16 1.22465e-16 1 316.963 115.05)"/><path d="M1.17448e-06-0.325 13.6557-0.32495 13.6557 0.325049-1.17448e-06 0.325ZM9.96372-3.49963 14.1633 5.11608e-05 9.96372 3.4997C9.82582 3.61461 9.62091 3.59599 9.50602 3.45809 9.39112 3.3202 9.40969 3.11527 9.54759 3.00036L13.4476-0.249623 13.4476 0.249721 9.54767-3.00029C9.40976-3.1152 9.39112-3.32013 9.50602-3.45803 9.62091-3.59592 9.82589-3.61454 9.96372-3.49963Z" transform="matrix(-1 0 0 1 455.252 240.63)"/><text font-family="Sabon Next LT,Sabon Next LT_MSFontService,sans-serif" font-weight="400" font-size="15" transform="matrix(0.78 0 0 0.78 22.2149 63)">Developer View of Stack</text><text font-family="Consolas,Consolas_MSFontService,sans-serif" font-weight="400" font-size="12" transform="matrix(0.78 0 0 0.78 22.2149 86)">RunAsGreenThread</text><text font-family="Consolas,Consolas_MSFontService,sans-serif" font-weight="400" font-size="12" transform="matrix(0.78 0 0 0.78 22.2149 97)">ThreadPool</text><text font-family="Consolas,Consolas_MSFontService,sans-serif" font-weight="400" font-size="12" transform="matrix(0.78 0 0 0.78 22.2149 108)">…</text><text font-family="Sabon Next LT,Sabon Next LT_MSFontService,sans-serif" font-weight="400" font-size="12" transform="matrix(0.78 0 0 0.78 22.2149 129)">Note</text><text font-family="Sabon Next LT,Sabon Next LT_MSFontService,sans-serif" font-weight="400" font-size="12" transform="matrix(0.78 0 0 0.78 41.7149 129)">: </text><text font-family="Sabon Next LT,Sabon Next LT_MSFontService,sans-serif" font-weight="400" font-size="12" transform="matrix(0.78 0 0 0.78 46.3949 129)">_</text><text font-family="Sabon Next LT,Sabon Next LT_MSFontService,sans-serif" font-weight="400" font-size="12" transform="matrix(0.78 0 0 0.78 50.4899 129)">morestack</text><text font-family="Sabon Next LT,Sabon Next LT_MSFontService,sans-serif" font-weight="400" font-size="12" transform="matrix(0.78 0 0 0.78 92.0088 129)">frames and</text><text font-family="Sabon Next LT,Sabon Next LT_MSFontService,sans-serif" font-weight="400" font-size="12" transform="matrix(0.78 0 0 0.78 22.2149 140)">FirstFrameInGreenThread</text><text font-family="Sabon Next LT,Sabon Next LT_MSFontService,sans-serif" font-weight="400" font-size="12" transform="matrix(0.78 0 0 0.78 125.12 140)">are</text><text font-family="Sabon Next LT,Sabon Next LT_MSFontService,sans-serif" font-weight="400" font-size="12" transform="matrix(0.78 0 0 0.78 22.2149 151)">elided from the developer visible</text><text font-family="Sabon Next LT,Sabon Next LT_MSFontService,sans-serif" font-weight="400" font-size="12" transform="matrix(0.78 0 0 0.78 22.2149 162)">view</text><text font-family="Sabon Next LT,Sabon Next LT_MSFontService,sans-serif" font-weight="400" font-size="12" transform="matrix(0.78 0 0 0.78 40.1549 162)">.</text><text font-family="Arial,Arial_MSFontService,sans-serif" font-weight="400" font-size="10" transform="matrix(0.78 0 0 0.78 581.162 34)">13</text></g></svg>