<svg xmlns="http://www.w3.org/2000/svg" xmlns:xlink="http://www.w3.org/1999/xlink" xmlns:lucid="lucid" width="2862" height="1102"><g transform="translate(61 -99)" lucid:page-tab-id="HWEp-vi-RSFO"><path d="M-500 0h3500v1500H-500z" fill="#fff"/><path d="M1400 540h1380v640H1400zM-40 540h1380v640H-40z" stroke="#282c33" stroke-width="2" fill-opacity="0"/><use xlink:href="#a" transform="matrix(1,0,0,1,-35,545) translate(682.5373456790123 319.98888888888894)"/><path d="M1914.88 566a6 6 0 0 1 6-6h348a6 6 0 0 1 6 6v255a6 6 0 0 1-6 6h-348a6 6 0 0 1-6-6z" stroke="#3a414a" stroke-width="2" fill="#fff"/><path d="M1914.88 629.33h360" stroke="#3a414a" stroke-width="2" fill="none"/><use xlink:href="#b" transform="matrix(1,0,0,1,1922.8750735556373,568) translate(117.12345679012344 18.111111111111114)"/><use xlink:href="#c" transform="matrix(1,0,0,1,1922.8750735556373,568) translate(130.1172839506173 44.777777777777786)"/><use xlink:href="#d" transform="matrix(1,0,0,1,1926.8750735556373,637.3333333333334) translate(0 82.11111111111111)"/><use xlink:href="#e" transform="matrix(1,0,0,1,1926.8750735556373,637.3333333333334) translate(19.1358024691358 82.11111111111111)"/><use xlink:href="#f" transform="matrix(1,0,0,1,1926.8750735556373,637.3333333333334) translate(165.679012345679 82.11111111111111)"/><use xlink:href="#d" transform="matrix(1,0,0,1,1926.8750735556373,637.3333333333334) translate(0 108.7777777777778)"/><use xlink:href="#g" transform="matrix(1,0,0,1,1926.8750735556373,637.3333333333334) translate(19.1358024691358 108.7777777777778)"/><use xlink:href="#h" transform="matrix(1,0,0,1,1926.8750735556373,637.3333333333334) translate(135.98765432098764 108.7777777777778)"/><use xlink:href="#i" transform="matrix(1,0,0,1,1926.8750735556373,637.3333333333334) translate(191.48148148148147 108.7777777777778)"/><path d="M443.25 126a6 6 0 0 1 6-6H854a6 6 0 0 1 6 6v228a6 6 0 0 1-6 6H449.26a6 6 0 0 1-6-6z" stroke="#282c33" stroke-width="2" fill="#fff"/><path d="M443.25 162.67H860" stroke="#282c33" stroke-width="2" fill="none"/><use xlink:href="#j" transform="matrix(1,0,0,1,451.24619349547106,128) translate(149.32716049382717 17.944444444444443)"/><use xlink:href="#d" transform="matrix(1,0,0,1,455.24619349547106,170.66666666666669) translate(0 68.77777777777777)"/><use xlink:href="#k" transform="matrix(1,0,0,1,455.24619349547106,170.66666666666669) translate(19.1358024691358 68.77777777777777)"/><use xlink:href="#l" transform="matrix(1,0,0,1,455.24619349547106,170.66666666666669) translate(262.2839506172839 68.77777777777777)"/><use xlink:href="#m" transform="matrix(1,0,0,1,455.24619349547106,170.66666666666669) translate(299.3209876543209 68.77777777777777)"/><use xlink:href="#n" transform="matrix(1,0,0,1,455.24619349547106,170.66666666666669) translate(0 95.44444444444446)"/><use xlink:href="#o" transform="matrix(1,0,0,1,455.24619349547106,170.66666666666669) translate(0 122.11111111111111)"/><path d="M440 566a6 6 0 0 1 6-6h404.76a6 6 0 0 1 6 6v255a6 6 0 0 1-6 6H446a6 6 0 0 1-6-6z" stroke="#282c33" stroke-width="2" fill="#fff"/><path d="M440 629.33h416.76" stroke="#282c33" stroke-width="2" fill="none"/><use xlink:href="#p" transform="matrix(1,0,0,1,448,568) translate(145.62345679012344 18.111111111111114)"/><use xlink:href="#q" transform="matrix(1,0,0,1,448,568) translate(160.43827160493828 44.777777777777786)"/><use xlink:href="#d" transform="matrix(1,0,0,1,452,637.3333333333334) translate(0 68.77777777777777)"/><use xlink:href="#r" transform="matrix(1,0,0,1,452,637.3333333333334) translate(19.1358024691358 68.77777777777777)"/><use xlink:href="#s" transform="matrix(1,0,0,1,452,637.3333333333334) translate(168.20987654320987 68.77777777777777)"/><use xlink:href="#d" transform="matrix(1,0,0,1,452,637.3333333333334) translate(0 95.44444444444446)"/><use xlink:href="#t" transform="matrix(1,0,0,1,452,637.3333333333334) translate(19.1358024691358 95.44444444444446)"/><use xlink:href="#n" transform="matrix(1,0,0,1,452,637.3333333333334) translate(141.11111111111111 95.44444444444446)"/><use xlink:href="#o" transform="matrix(1,0,0,1,452,637.3333333333334) translate(0 122.11111111111111)"/><path d="M-23.25 926a6 6 0 0 1 6-6h404.77a6 6 0 0 1 6 6v228a6 6 0 0 1-6 6H-17.25a6 6 0 0 1-6-6z" stroke="#282c33" stroke-width="2" fill="#fff"/><path d="M-23.25 962.67h416.77" stroke="#282c33" stroke-width="2" fill="none"/><use xlink:href="#u" transform="matrix(1,0,0,1,-15.246193495471061,928) translate(127.16666666666667 17.944444444444443)"/><use xlink:href="#d" transform="matrix(1,0,0,1,-11.246193495471061,970.6666666666666) translate(0 68.77777777777777)"/><use xlink:href="#r" transform="matrix(1,0,0,1,-11.246193495471061,970.6666666666666) translate(19.1358024691358 68.77777777777777)"/><use xlink:href="#s" transform="matrix(1,0,0,1,-11.246193495471061,970.6666666666666) translate(168.20987654320987 68.77777777777777)"/><use xlink:href="#d" transform="matrix(1,0,0,1,-11.246193495471061,970.6666666666666) translate(0 95.44444444444446)"/><use xlink:href="#t" transform="matrix(1,0,0,1,-11.246193495471061,970.6666666666666) translate(19.1358024691358 95.44444444444446)"/><use xlink:href="#n" transform="matrix(1,0,0,1,-11.246193495471061,970.6666666666666) translate(141.11111111111111 95.44444444444446)"/><use xlink:href="#o" transform="matrix(1,0,0,1,-11.246193495471061,970.6666666666666) translate(0 122.11111111111111)"/><path d="M443.25 926a6 6 0 0 1 6-6H854a6 6 0 0 1 6 6v228a6 6 0 0 1-6 6H449.26a6 6 0 0 1-6-6z" stroke="#282c33" stroke-width="2" fill="#fff"/><path d="M443.25 962.67H860" stroke="#282c33" stroke-width="2" fill="none"/><use xlink:href="#v" transform="matrix(1,0,0,1,451.24619349547106,928) translate(139.48148148148147 17.944444444444443)"/><use xlink:href="#d" transform="matrix(1,0,0,1,455.24619349547106,970.6666666666666) translate(0 68.77777777777777)"/><use xlink:href="#r" transform="matrix(1,0,0,1,455.24619349547106,970.6666666666666) translate(19.1358024691358 68.77777777777777)"/><use xlink:href="#s" transform="matrix(1,0,0,1,455.24619349547106,970.6666666666666) translate(168.20987654320987 68.77777777777777)"/><use xlink:href="#d" transform="matrix(1,0,0,1,455.24619349547106,970.6666666666666) translate(0 95.44444444444446)"/><use xlink:href="#t" transform="matrix(1,0,0,1,455.24619349547106,970.6666666666666) translate(19.1358024691358 95.44444444444446)"/><use xlink:href="#n" transform="matrix(1,0,0,1,455.24619349547106,970.6666666666666) translate(141.11111111111111 95.44444444444446)"/><use xlink:href="#o" transform="matrix(1,0,0,1,455.24619349547106,970.6666666666666) translate(0 122.11111111111111)"/><path d="M903.25 926a6 6 0 0 1 6-6H1314a6 6 0 0 1 6 6v228a6 6 0 0 1-6 6H909.26a6 6 0 0 1-6-6z" stroke="#282c33" stroke-width="2" fill="#fff"/><path d="M903.25 962.67H1320" stroke="#282c33" stroke-width="2" fill="none"/><use xlink:href="#w" transform="matrix(1,0,0,1,911.2461934954711,928) translate(126.51851851851852 17.944444444444443)"/><use xlink:href="#d" transform="matrix(1,0,0,1,915.2461934954711,970.6666666666666) translate(0 68.77777777777777)"/><use xlink:href="#r" transform="matrix(1,0,0,1,915.2461934954711,970.6666666666666) translate(19.1358024691358 68.77777777777777)"/><use xlink:href="#s" transform="matrix(1,0,0,1,915.2461934954711,970.6666666666666) translate(168.20987654320987 68.77777777777777)"/><use xlink:href="#d" transform="matrix(1,0,0,1,915.2461934954711,970.6666666666666) translate(0 95.44444444444446)"/><use xlink:href="#t" transform="matrix(1,0,0,1,915.2461934954711,970.6666666666666) translate(19.1358024691358 95.44444444444446)"/><use xlink:href="#n" transform="matrix(1,0,0,1,915.2461934954711,970.6666666666666) translate(141.11111111111111 95.44444444444446)"/><use xlink:href="#o" transform="matrix(1,0,0,1,915.2461934954711,970.6666666666666) translate(0 122.11111111111111)"/><path d="M648.38 834.87v26.63a12 12 0 0 1-12 12H197.14a12 12 0 0 0-12 12v33" stroke="#333" fill="none"/><path d="M648.38 828.98l7.64 12.9h-15.27z" stroke="#333" fill="#333"/><path d="M185.6 919h-.94v-.5h.95z" stroke="#333" stroke-width=".05" fill="#333"/><path d="M648.38 834.87v83.63" stroke="#333" fill="none"/><path d="M648.38 828.98l7.64 12.9h-15.27z" stroke="#333" fill="#333"/><path d="M648.86 919h-.95v-.5h.96z" stroke="#333" stroke-width=".05" fill="#333"/><path d="M648.38 834.87v26.63a12 12 0 0 0 12 12h439.25a12 12 0 0 1 12 12v33" stroke="#333" fill="none"/><path d="M648.38 828.98l7.64 12.9h-15.27z" stroke="#333" fill="#333"/><path d="M1112.1 919h-.95v-.5h.95z" stroke="#333" stroke-width=".05" fill="#333"/><path d="M858.26 693.5h524.36" stroke="#333" fill="none"/><path d="M858.28 693.98h-.5V693h.5z" stroke="#333" stroke-width=".05" fill="#333"/><path d="M1397.38 693.5l-14.26 4.63v-9.26z" stroke="#333" fill="#333"/><g><use xlink:href="#x" transform="matrix(1,0,0,1,1091.6298837222223,662.5666666666666) translate(0.005000000000002558 17.955555555555552)"/></g><path d="M1420 926a6 6 0 0 1 6-6h404.77a6 6 0 0 1 6 6v228a6 6 0 0 1-6 6H1426a6 6 0 0 1-6-6z" stroke="#282c33" stroke-width="2" fill="#fff"/><path d="M1420 962.67h416.77" stroke="#282c33" stroke-width="2" fill="none"/><g><use xlink:href="#y" transform="matrix(1,0,0,1,1428,928) translate(125.34567901234568 17.944444444444443)"/></g><g><use xlink:href="#d" transform="matrix(1,0,0,1,1432,970.6666666666666) translate(0 82.11111111111111)"/><use xlink:href="#e" transform="matrix(1,0,0,1,1432,970.6666666666666) translate(19.1358024691358 82.11111111111111)"/><use xlink:href="#f" transform="matrix(1,0,0,1,1432,970.6666666666666) translate(165.679012345679 82.11111111111111)"/><use xlink:href="#d" transform="matrix(1,0,0,1,1432,970.6666666666666) translate(0 108.7777777777778)"/><use xlink:href="#g" transform="matrix(1,0,0,1,1432,970.6666666666666) translate(19.1358024691358 108.7777777777778)"/><use xlink:href="#h" transform="matrix(1,0,0,1,1432,970.6666666666666) translate(135.98765432098764 108.7777777777778)"/><use xlink:href="#i" transform="matrix(1,0,0,1,1432,970.6666666666666) translate(191.48148148148147 108.7777777777778)"/></g><path d="M1886.5 926a6 6 0 0 1 6-6h404.76a6 6 0 0 1 6 6v228a6 6 0 0 1-6 6H1892.5a6 6 0 0 1-6-6z" stroke="#282c33" stroke-width="2" fill="#fff"/><path d="M1886.5 962.67h416.76" stroke="#282c33" stroke-width="2" fill="none"/><g><use xlink:href="#z" transform="matrix(1,0,0,1,1894.4923869909421,928) translate(137.66049382716048 17.944444444444443)"/></g><g><use xlink:href="#d" transform="matrix(1,0,0,1,1898.4923869909421,970.6666666666666) translate(0 82.11111111111111)"/><use xlink:href="#e" transform="matrix(1,0,0,1,1898.4923869909421,970.6666666666666) translate(19.1358024691358 82.11111111111111)"/><use xlink:href="#f" transform="matrix(1,0,0,1,1898.4923869909421,970.6666666666666) translate(165.679012345679 82.11111111111111)"/><use xlink:href="#d" transform="matrix(1,0,0,1,1898.4923869909421,970.6666666666666) translate(0 108.7777777777778)"/><use xlink:href="#g" transform="matrix(1,0,0,1,1898.4923869909421,970.6666666666666) translate(19.1358024691358 108.7777777777778)"/><use xlink:href="#h" transform="matrix(1,0,0,1,1898.4923869909421,970.6666666666666) translate(135.98765432098764 108.7777777777778)"/><use xlink:href="#i" transform="matrix(1,0,0,1,1898.4923869909421,970.6666666666666) translate(191.48148148148147 108.7777777777778)"/></g><path d="M2346.5 926a6 6 0 0 1 6-6h404.76a6 6 0 0 1 6 6v228a6 6 0 0 1-6 6H2352.5a6 6 0 0 1-6-6z" stroke="#282c33" stroke-width="2" fill="#fff"/><path d="M2346.5 962.67h416.76" stroke="#282c33" stroke-width="2" fill="none"/><g><use xlink:href="#A" transform="matrix(1,0,0,1,2354.492386990942,928) translate(124.69753086419753 17.944444444444443)"/></g><g><use xlink:href="#d" transform="matrix(1,0,0,1,2358.492386990942,970.6666666666666) translate(0 82.11111111111111)"/><use xlink:href="#e" transform="matrix(1,0,0,1,2358.492386990942,970.6666666666666) translate(19.1358024691358 82.11111111111111)"/><use xlink:href="#f" transform="matrix(1,0,0,1,2358.492386990942,970.6666666666666) translate(165.679012345679 82.11111111111111)"/><use xlink:href="#d" transform="matrix(1,0,0,1,2358.492386990942,970.6666666666666) translate(0 108.7777777777778)"/><use xlink:href="#g" transform="matrix(1,0,0,1,2358.492386990942,970.6666666666666) translate(19.1358024691358 108.7777777777778)"/><use xlink:href="#h" transform="matrix(1,0,0,1,2358.492386990942,970.6666666666666) translate(135.98765432098764 108.7777777777778)"/><use xlink:href="#i" transform="matrix(1,0,0,1,2358.492386990942,970.6666666666666) translate(191.48148148148147 108.7777777777778)"/></g><path d="M2094.88 834.87v26.63a12 12 0 0 1-12 12h-442.5a12 12 0 0 0-12 12v33" stroke="#333" fill="none"/><path d="M2094.88 828.98l7.63 12.9h-15.26z" stroke="#333" fill="#333"/><path d="M1628.86 919h-.95v-.5h.96z" stroke="#333" stroke-width=".05" fill="#333"/><path d="M2094.88 834.87v83.63" stroke="#333" fill="none"/><path d="M2094.88 828.98l7.63 12.9h-15.26z" stroke="#333" fill="#333"/><path d="M2095.35 919h-.95v-.5h.95z" stroke="#333" stroke-width=".05" fill="#333"/><path d="M2094.88 834.87v26.63a12 12 0 0 0 12 12h436a12 12 0 0 1 12 12v33" stroke="#333" fill="none"/><path d="M2094.88 828.98l7.63 12.9h-15.26z" stroke="#333" fill="#333"/><path d="M2555.35 919h-.95v-.5h.95z" stroke="#333" stroke-width=".05" fill="#333"/><path d="M651.63 361.5v161.12" stroke="#333" fill="none"/><path d="M652.1 361.5h-.95v-.5h.95z" stroke="#333" stroke-width=".05" fill="#333"/><path d="M651.63 537.38L647 523.12h9.26z" stroke="#333" fill="#333"/><g><use xlink:href="#x" transform="matrix(1,0,0,1,659.6288800601662,436.53330833333337) translate(0.005000000000002558 17.955555555555552)"/></g><path d="M620 827h240v60H620z" fill="none"/><g><use xlink:href="#B" transform="matrix(1,0,0,1,620.0115666248614,827) translate(62.76666666666668 34.48888888888889)"/></g><path d="M2060 827h240v60h-240z" fill="none"/><g><use xlink:href="#B" transform="matrix(1,0,0,1,2060,827) translate(62.76666666666668 34.48888888888889)"/></g><defs><path fill="#282c33" d="M24-231v-30h32v30H24zM24 0v-190h32V0H24" id="C"/><use transform="matrix(0.06234567901234567,0,0,0.06234567901234567,0,0)" xlink:href="#C" id="a"/><path fill="#3a414a" d="M156-25L96-89v-11l60-65h29v5l-59 66 60 64v5h-30zm-82 0L15-89v-11l59-65h29v5L44-94l59 64v5H74" id="D"/><path fill="#3a414a" d="M24-231v-30h32v30H24zM24 0v-190h32V0H24" id="E"/><path fill="#3a414a" d="M117-194c89-4 53 116 60 194h-32v-121c0-31-8-49-39-48C34-167 62-67 57 0H25l-1-190h30c1 10-1 24 2 32 11-22 29-35 61-36" id="F"/><path fill="#3a414a" d="M59-47c-2 24 18 29 38 22v24C64 9 27 4 27-40v-127H5v-23h24l9-43h21v43h35v23H59v120" id="G"/><path fill="#3a414a" d="M100-194c63 0 86 42 84 106H49c0 40 14 67 53 68 26 1 43-12 49-29l28 8c-11 28-37 45-77 45C44 4 14-33 15-96c1-61 26-98 85-98zm52 81c6-60-76-77-97-28-3 7-6 17-6 28h103" id="H"/><path fill="#3a414a" d="M114-163C36-179 61-72 57 0H25l-1-190h30c1 12-1 29 2 39 6-27 23-49 58-41v29" id="I"/><path fill="#3a414a" d="M101-234c-31-9-42 10-38 44h38v23H63V0H32v-167H5v-23h27c-7-52 17-82 69-68v24" id="J"/><path fill="#3a414a" d="M141-36C126-15 110 5 73 4 37 3 15-17 15-53c-1-64 63-63 125-63 3-35-9-54-41-54-24 1-41 7-42 31l-33-3c5-37 33-52 76-52 45 0 72 20 72 64v82c-1 20 7 32 28 27v20c-31 9-61-2-59-35zM48-53c0 20 12 33 32 33 41-3 63-29 60-74-43 2-92-5-92 41" id="K"/><path fill="#3a414a" d="M96-169c-40 0-48 33-48 73s9 75 48 75c24 0 41-14 43-38l32 2c-6 37-31 61-74 61-59 0-76-41-82-99-10-93 101-131 147-64 4 7 5 14 7 22l-32 3c-4-21-16-35-41-35" id="L"/><path fill="#3a414a" d="M126-25H97v-5l59-64-59-66v-5h29l60 65v11zm-82 0H15v-5l59-64-59-66v-5h29l59 65v11" id="M"/><g id="b"><use transform="matrix(0.06172839506172839,0,0,0.06172839506172839,0,0)" xlink:href="#D"/><use transform="matrix(0.06172839506172839,0,0,0.06172839506172839,12.345679012345679,0)" xlink:href="#E"/><use transform="matrix(0.06172839506172839,0,0,0.06172839506172839,17.22222222222222,0)" xlink:href="#F"/><use transform="matrix(0.06172839506172839,0,0,0.06172839506172839,29.5679012345679,0)" xlink:href="#G"/><use transform="matrix(0.06172839506172839,0,0,0.06172839506172839,35.74074074074074,0)" xlink:href="#H"/><use transform="matrix(0.06172839506172839,0,0,0.06172839506172839,48.08641975308642,0)" xlink:href="#I"/><use transform="matrix(0.06172839506172839,0,0,0.06172839506172839,55.432098765432094,0)" xlink:href="#J"/><use transform="matrix(0.06172839506172839,0,0,0.06172839506172839,61.60493827160494,0)" xlink:href="#K"/><use transform="matrix(0.06172839506172839,0,0,0.06172839506172839,73.95061728395062,0)" xlink:href="#L"/><use transform="matrix(0.06172839506172839,0,0,0.06172839506172839,85.06172839506173,0)" xlink:href="#H"/><use transform="matrix(0.06172839506172839,0,0,0.06172839506172839,97.40740740740742,0)" xlink:href="#M"/></g><path fill="#3a414a" d="M33 0v-248h34V0H33" id="N"/><path fill="#3a414a" d="M197 0v-115H63V0H30v-248h33v105h134v-105h34V0h-34" id="O"/><path fill="#3a414a" d="M85-194c31 0 48 13 60 33l-1-100h32l1 261h-30c-2-10 0-23-3-31C134-8 116 4 85 4 32 4 16-35 15-94c0-66 23-100 70-100zm9 24c-40 0-46 34-46 75 0 40 6 74 45 74 42 0 51-32 51-76 0-42-9-74-50-73" id="P"/><path fill="#3a414a" d="M24 0v-261h32V0H24" id="Q"/><g id="c"><use transform="matrix(0.06172839506172839,0,0,0.06172839506172839,0,0)" xlink:href="#N"/><use transform="matrix(0.06172839506172839,0,0,0.06172839506172839,6.172839506172839,0)" xlink:href="#O"/><use transform="matrix(0.06172839506172839,0,0,0.06172839506172839,22.160493827160494,0)" xlink:href="#K"/><use transform="matrix(0.06172839506172839,0,0,0.06172839506172839,34.50617283950617,0)" xlink:href="#F"/><use transform="matrix(0.06172839506172839,0,0,0.06172839506172839,46.85185185185185,0)" xlink:href="#P"/><use transform="matrix(0.06172839506172839,0,0,0.06172839506172839,59.197530864197525,0)" xlink:href="#Q"/><use transform="matrix(0.06172839506172839,0,0,0.06172839506172839,64.07407407407406,0)" xlink:href="#H"/><use transform="matrix(0.06172839506172839,0,0,0.06172839506172839,76.41975308641975,0)" xlink:href="#I"/></g><path fill="#282c33" d="M118-107v75H92v-75H18v-26h74v-75h26v75h74v26h-74" id="R"/><use transform="matrix(0.06172839506172839,0,0,0.06172839506172839,0,0)" xlink:href="#R" id="d"/><path fill="#282c33" d="M240 0l2-218c-23 76-54 145-80 218h-23L58-218 59 0H30v-248h44l77 211c21-75 51-140 76-211h43V0h-30" id="S"/><path fill="#282c33" d="M141-36C126-15 110 5 73 4 37 3 15-17 15-53c-1-64 63-63 125-63 3-35-9-54-41-54-24 1-41 7-42 31l-33-3c5-37 33-52 76-52 45 0 72 20 72 64v82c-1 20 7 32 28 27v20c-31 9-61-2-59-35zM48-53c0 20 12 33 32 33 41-3 63-29 60-74-43 2-92-5-92 41" id="T"/><path fill="#282c33" d="M114-163C36-179 61-72 57 0H25l-1-190h30c1 12-1 29 2 39 6-27 23-49 58-41v29" id="U"/><path fill="#282c33" d="M135-143c-3-34-86-38-87 0 15 53 115 12 119 90S17 21 10-45l28-5c4 36 97 45 98 0-10-56-113-15-118-90-4-57 82-63 122-42 12 7 21 19 24 35" id="V"/><path fill="#282c33" d="M106-169C34-169 62-67 57 0H25v-261h32l-1 103c12-21 28-36 61-36 89 0 53 116 60 194h-32v-121c2-32-8-49-39-48" id="W"/><path fill="#282c33" d="M24 0v-261h32V0H24" id="X"/><path fill="#282c33" d="M87 75C49 33 22-17 22-94c0-76 28-126 65-167h31c-38 41-64 92-64 168S80 34 118 75H87" id="Y"/><path fill="#282c33" d="M85-194c31 0 48 13 60 33l-1-100h32l1 261h-30c-2-10 0-23-3-31C134-8 116 4 85 4 32 4 16-35 15-94c0-66 23-100 70-100zm9 24c-40 0-46 34-46 75 0 40 6 74 45 74 42 0 51-32 51-76 0-42-9-74-50-73" id="Z"/><path fill="#282c33" d="M100-194c63 0 86 42 84 106H49c0 40 14 67 53 68 26 1 43-12 49-29l28 8c-11 28-37 45-77 45C44 4 14-33 15-96c1-61 26-98 85-98zm52 81c6-60-76-77-97-28-3 7-6 17-6 28h103" id="aa"/><path fill="#282c33" d="M96-169c-40 0-48 33-48 73s9 75 48 75c24 0 41-14 43-38l32 2c-6 37-31 61-74 61-59 0-76-41-82-99-10-93 101-131 147-64 4 7 5 14 7 22l-32 3c-4-21-16-35-41-35" id="ab"/><path fill="#282c33" d="M33-261c38 41 65 92 65 168S71 34 33 75H2C39 34 66-17 66-93S39-220 2-261h31" id="ac"/><path fill="#282c33" d="M33-154v-36h34v36H33zM33 0v-36h34V0H33" id="ad"/><g id="e"><use transform="matrix(0.06172839506172839,0,0,0.06172839506172839,0,0)" xlink:href="#S"/><use transform="matrix(0.06172839506172839,0,0,0.06172839506172839,18.456790123456788,0)" xlink:href="#T"/><use transform="matrix(0.06172839506172839,0,0,0.06172839506172839,30.80246913580247,0)" xlink:href="#U"/><use transform="matrix(0.06172839506172839,0,0,0.06172839506172839,38.148148148148145,0)" xlink:href="#V"/><use transform="matrix(0.06172839506172839,0,0,0.06172839506172839,49.25925925925925,0)" xlink:href="#W"/><use transform="matrix(0.06172839506172839,0,0,0.06172839506172839,61.60493827160493,0)" xlink:href="#T"/><use transform="matrix(0.06172839506172839,0,0,0.06172839506172839,73.9506172839506,0)" xlink:href="#X"/><use transform="matrix(0.06172839506172839,0,0,0.06172839506172839,78.82716049382715,0)" xlink:href="#Y"/><use transform="matrix(0.06172839506172839,0,0,0.06172839506172839,86.17283950617283,0)" xlink:href="#Z"/><use transform="matrix(0.06172839506172839,0,0,0.06172839506172839,98.51851851851852,0)" xlink:href="#aa"/><use transform="matrix(0.06172839506172839,0,0,0.06172839506172839,110.8641975308642,0)" xlink:href="#ab"/><use transform="matrix(0.06172839506172839,0,0,0.06172839506172839,121.97530864197532,0)" xlink:href="#X"/><use transform="matrix(0.06172839506172839,0,0,0.06172839506172839,126.85185185185188,0)" xlink:href="#ac"/><use transform="matrix(0.06172839506172839,0,0,0.06172839506172839,134.19753086419755,0)" xlink:href="#ad"/></g><path fill="#282c33" d="M33 0v-248h34V0H33" id="ae"/><path fill="#282c33" d="M30 0v-248h187v28H63v79h144v27H63v87h162V0H30" id="af"/><path fill="#282c33" d="M117-194c89-4 53 116 60 194h-32v-121c0-31-8-49-39-48C34-167 62-67 57 0H25l-1-190h30c1 10-1 24 2 32 11-22 29-35 61-36" id="ag"/><path fill="#282c33" d="M108 0H70L1-190h34L89-25l56-165h34" id="ah"/><path fill="#282c33" d="M100-194c62-1 85 37 85 99 1 63-27 99-86 99S16-35 15-95c0-66 28-99 85-99zM99-20c44 1 53-31 53-75 0-43-8-75-51-75s-53 32-53 75 10 74 51 75" id="ai"/><path fill="#282c33" d="M210-169c-67 3-38 105-44 169h-31v-121c0-29-5-50-35-48C34-165 62-65 56 0H25l-1-190h30c1 10-1 24 2 32 10-44 99-50 107 0 11-21 27-35 58-36 85-2 47 119 55 194h-31v-121c0-29-5-49-35-48" id="aj"/><path fill="#282c33" d="M59-47c-2 24 18 29 38 22v24C64 9 27 4 27-40v-127H5v-23h24l9-43h21v43h35v23H59v120" id="ak"/><g id="f"><use transform="matrix(0.06172839506172839,0,0,0.06172839506172839,0,0)" xlink:href="#ae"/><use transform="matrix(0.06172839506172839,0,0,0.06172839506172839,6.172839506172839,0)" xlink:href="#af"/><use transform="matrix(0.06172839506172839,0,0,0.06172839506172839,20.98765432098765,0)" xlink:href="#ag"/><use transform="matrix(0.06172839506172839,0,0,0.06172839506172839,33.33333333333333,0)" xlink:href="#ah"/><use transform="matrix(0.06172839506172839,0,0,0.06172839506172839,44.44444444444444,0)" xlink:href="#C"/><use transform="matrix(0.06172839506172839,0,0,0.06172839506172839,49.32098765432099,0)" xlink:href="#U"/><use transform="matrix(0.06172839506172839,0,0,0.06172839506172839,56.666666666666664,0)" xlink:href="#ai"/><use transform="matrix(0.06172839506172839,0,0,0.06172839506172839,69.01234567901234,0)" xlink:href="#ag"/><use transform="matrix(0.06172839506172839,0,0,0.06172839506172839,81.35802469135803,0)" xlink:href="#aj"/><use transform="matrix(0.06172839506172839,0,0,0.06172839506172839,99.81481481481481,0)" xlink:href="#aa"/><use transform="matrix(0.06172839506172839,0,0,0.06172839506172839,112.1604938271605,0)" xlink:href="#ag"/><use transform="matrix(0.06172839506172839,0,0,0.06172839506172839,124.50617283950618,0)" xlink:href="#ak"/></g><path fill="#282c33" d="M206 0h-36l-40-164L89 0H53L-1-190h32L70-26l43-164h34l41 164 42-164h31" id="al"/><path fill="#282c33" d="M68-38c1 34 0 65-14 84H32c9-13 17-26 17-46H33v-38h35" id="am"/><g id="g"><use transform="matrix(0.06172839506172839,0,0,0.06172839506172839,0,0)" xlink:href="#af"/><use transform="matrix(0.06172839506172839,0,0,0.06172839506172839,14.814814814814813,0)" xlink:href="#aj"/><use transform="matrix(0.06172839506172839,0,0,0.06172839506172839,33.2716049382716,0)" xlink:href="#C"/><use transform="matrix(0.06172839506172839,0,0,0.06172839506172839,38.148148148148145,0)" xlink:href="#ak"/><use transform="matrix(0.06172839506172839,0,0,0.06172839506172839,44.32098765432099,0)" xlink:href="#Y"/><use transform="matrix(0.06172839506172839,0,0,0.06172839506172839,51.666666666666664,0)" xlink:href="#al"/><use transform="matrix(0.06172839506172839,0,0,0.06172839506172839,67.65432098765432,0)" xlink:href="#U"/><use transform="matrix(0.06172839506172839,0,0,0.06172839506172839,75,0)" xlink:href="#C"/><use transform="matrix(0.06172839506172839,0,0,0.06172839506172839,79.87654320987654,0)" xlink:href="#ak"/><use transform="matrix(0.06172839506172839,0,0,0.06172839506172839,86.04938271604938,0)" xlink:href="#aa"/><use transform="matrix(0.06172839506172839,0,0,0.06172839506172839,98.39506172839506,0)" xlink:href="#U"/><use transform="matrix(0.06172839506172839,0,0,0.06172839506172839,104.50617283950618,0)" xlink:href="#am"/></g><g id="h"><use transform="matrix(0.06172839506172839,0,0,0.06172839506172839,0,0)" xlink:href="#aa"/><use transform="matrix(0.06172839506172839,0,0,0.06172839506172839,12.345679012345679,0)" xlink:href="#ag"/><use transform="matrix(0.06172839506172839,0,0,0.06172839506172839,24.691358024691358,0)" xlink:href="#ah"/><use transform="matrix(0.06172839506172839,0,0,0.06172839506172839,35.80246913580247,0)" xlink:href="#ac"/><use transform="matrix(0.06172839506172839,0,0,0.06172839506172839,43.148148148148145,0)" xlink:href="#ad"/></g><g id="i"><use transform="matrix(0.06172839506172839,0,0,0.06172839506172839,0,0)" xlink:href="#ah"/><use transform="matrix(0.06172839506172839,0,0,0.06172839506172839,11.11111111111111,0)" xlink:href="#ai"/><use transform="matrix(0.06172839506172839,0,0,0.06172839506172839,23.45679012345679,0)" xlink:href="#C"/><use transform="matrix(0.06172839506172839,0,0,0.06172839506172839,28.333333333333336,0)" xlink:href="#Z"/></g><path fill="#282c33" d="M212-179c-10-28-35-45-73-45-59 0-87 40-87 99 0 60 29 101 89 101 43 0 62-24 78-52l27 14C228-24 195 4 139 4 59 4 22-46 18-125c-6-104 99-153 187-111 19 9 31 26 39 46" id="an"/><path fill="#282c33" d="M84 4C-5 8 30-112 23-190h32v120c0 31 7 50 39 49 72-2 45-101 50-169h31l1 190h-30c-1-10 1-25-2-33-11 22-28 36-60 37" id="ao"/><g id="j"><use transform="matrix(0.06172839506172839,0,0,0.06172839506172839,0,0)" xlink:href="#an"/><use transform="matrix(0.06172839506172839,0,0,0.06172839506172839,15.987654320987653,0)" xlink:href="#ai"/><use transform="matrix(0.06172839506172839,0,0,0.06172839506172839,28.333333333333332,0)" xlink:href="#ag"/><use transform="matrix(0.06172839506172839,0,0,0.06172839506172839,40.67901234567901,0)" xlink:href="#Z"/><use transform="matrix(0.06172839506172839,0,0,0.06172839506172839,53.02469135802469,0)" xlink:href="#ao"/><use transform="matrix(0.06172839506172839,0,0,0.06172839506172839,65.37037037037037,0)" xlink:href="#ab"/><use transform="matrix(0.06172839506172839,0,0,0.06172839506172839,76.48148148148148,0)" xlink:href="#ak"/><use transform="matrix(0.06172839506172839,0,0,0.06172839506172839,82.65432098765432,0)" xlink:href="#ai"/><use transform="matrix(0.06172839506172839,0,0,0.06172839506172839,95,0)" xlink:href="#U"/></g><path fill="#282c33" d="M127-220V0H93v-220H8v-28h204v28h-85" id="ap"/><path fill="#282c33" d="M179-190L93 31C79 59 56 82 12 73V49c39 6 53-20 64-50L1-190h34L92-34l54-156h33" id="aq"/><path fill="#282c33" d="M143 4C61 4 22-44 18-125c-5-107 100-154 193-111 17 8 29 25 37 43l-32 9c-13-25-37-40-76-40-61 0-88 39-88 99 0 61 29 100 91 101 35 0 62-11 79-27v-45h-74v-28h105v86C228-13 192 4 143 4" id="ar"/><path fill="#282c33" d="M63-220v92h138v28H63V0H30v-248h175v28H63" id="as"/><path fill="#282c33" d="M197 0v-115H63V0H30v-248h33v105h134v-105h34V0h-34" id="at"/><g id="k"><use transform="matrix(0.06172839506172839,0,0,0.06172839506172839,0,0)" xlink:href="#ap"/><use transform="matrix(0.06172839506172839,0,0,0.06172839506172839,12.716049382716047,0)" xlink:href="#U"/><use transform="matrix(0.06172839506172839,0,0,0.06172839506172839,20.061728395061728,0)" xlink:href="#aq"/><use transform="matrix(0.06172839506172839,0,0,0.06172839506172839,31.17283950617284,0)" xlink:href="#ar"/><use transform="matrix(0.06172839506172839,0,0,0.06172839506172839,48.456790123456784,0)" xlink:href="#aa"/><use transform="matrix(0.06172839506172839,0,0,0.06172839506172839,60.80246913580246,0)" xlink:href="#ak"/><use transform="matrix(0.06172839506172839,0,0,0.06172839506172839,66.9753086419753,0)" xlink:href="#as"/><use transform="matrix(0.06172839506172839,0,0,0.06172839506172839,80.49382716049382,0)" xlink:href="#ai"/><use transform="matrix(0.06172839506172839,0,0,0.06172839506172839,92.8395061728395,0)" xlink:href="#ai"/><use transform="matrix(0.06172839506172839,0,0,0.06172839506172839,105.18518518518519,0)" xlink:href="#at"/><use transform="matrix(0.06172839506172839,0,0,0.06172839506172839,121.17283950617285,0)" xlink:href="#T"/><use transform="matrix(0.06172839506172839,0,0,0.06172839506172839,133.51851851851853,0)" xlink:href="#ag"/><use transform="matrix(0.06172839506172839,0,0,0.06172839506172839,145.8641975308642,0)" xlink:href="#Z"/><use transform="matrix(0.06172839506172839,0,0,0.06172839506172839,158.20987654320987,0)" xlink:href="#X"/><use transform="matrix(0.06172839506172839,0,0,0.06172839506172839,163.0864197530864,0)" xlink:href="#aa"/><use transform="matrix(0.06172839506172839,0,0,0.06172839506172839,175.43209876543207,0)" xlink:href="#U"/><use transform="matrix(0.06172839506172839,0,0,0.06172839506172839,182.77777777777774,0)" xlink:href="#Y"/><use transform="matrix(0.06172839506172839,0,0,0.06172839506172839,190.1234567901234,0)" xlink:href="#Z"/><use transform="matrix(0.06172839506172839,0,0,0.06172839506172839,202.46913580246908,0)" xlink:href="#aa"/><use transform="matrix(0.06172839506172839,0,0,0.06172839506172839,214.81481481481475,0)" xlink:href="#ab"/><use transform="matrix(0.06172839506172839,0,0,0.06172839506172839,225.92592592592587,0)" xlink:href="#X"/><use transform="matrix(0.06172839506172839,0,0,0.06172839506172839,230.8024691358024,0)" xlink:href="#am"/></g><g id="l"><use transform="matrix(0.06172839506172839,0,0,0.06172839506172839,0,0)" xlink:href="#ai"/><use transform="matrix(0.06172839506172839,0,0,0.06172839506172839,12.345679012345679,0)" xlink:href="#ao"/><use transform="matrix(0.06172839506172839,0,0,0.06172839506172839,24.691358024691358,0)" xlink:href="#ak"/></g><g id="m"><use transform="matrix(0.06172839506172839,0,0,0.06172839506172839,0,0)" xlink:href="#W"/><use transform="matrix(0.06172839506172839,0,0,0.06172839506172839,12.345679012345679,0)" xlink:href="#T"/><use transform="matrix(0.06172839506172839,0,0,0.06172839506172839,24.691358024691358,0)" xlink:href="#ag"/><use transform="matrix(0.06172839506172839,0,0,0.06172839506172839,37.03703703703704,0)" xlink:href="#Z"/><use transform="matrix(0.06172839506172839,0,0,0.06172839506172839,49.382716049382715,0)" xlink:href="#X"/><use transform="matrix(0.06172839506172839,0,0,0.06172839506172839,54.25925925925926,0)" xlink:href="#aa"/><use transform="matrix(0.06172839506172839,0,0,0.06172839506172839,66.60493827160494,0)" xlink:href="#U"/><use transform="matrix(0.06172839506172839,0,0,0.06172839506172839,73.95061728395062,0)" xlink:href="#ac"/><use transform="matrix(0.06172839506172839,0,0,0.06172839506172839,81.2962962962963,0)" xlink:href="#ad"/></g><g id="n"><use transform="matrix(0.06172839506172839,0,0,0.06172839506172839,0,0)" xlink:href="#ae"/><use transform="matrix(0.06172839506172839,0,0,0.06172839506172839,6.172839506172839,0)" xlink:href="#at"/><use transform="matrix(0.06172839506172839,0,0,0.06172839506172839,22.160493827160494,0)" xlink:href="#T"/><use transform="matrix(0.06172839506172839,0,0,0.06172839506172839,34.50617283950617,0)" xlink:href="#ag"/><use transform="matrix(0.06172839506172839,0,0,0.06172839506172839,46.85185185185185,0)" xlink:href="#Z"/><use transform="matrix(0.06172839506172839,0,0,0.06172839506172839,59.197530864197525,0)" xlink:href="#X"/><use transform="matrix(0.06172839506172839,0,0,0.06172839506172839,64.07407407407406,0)" xlink:href="#aa"/><use transform="matrix(0.06172839506172839,0,0,0.06172839506172839,76.41975308641975,0)" xlink:href="#U"/></g><g id="p"><use transform="matrix(0.06172839506172839,0,0,0.06172839506172839,0,0)" xlink:href="#D"/><use transform="matrix(0.06172839506172839,0,0,0.06172839506172839,12.345679012345679,0)" xlink:href="#E"/><use transform="matrix(0.06172839506172839,0,0,0.06172839506172839,17.22222222222222,0)" xlink:href="#F"/><use transform="matrix(0.06172839506172839,0,0,0.06172839506172839,29.5679012345679,0)" xlink:href="#G"/><use transform="matrix(0.06172839506172839,0,0,0.06172839506172839,35.74074074074074,0)" xlink:href="#H"/><use transform="matrix(0.06172839506172839,0,0,0.06172839506172839,48.08641975308642,0)" xlink:href="#I"/><use transform="matrix(0.06172839506172839,0,0,0.06172839506172839,55.432098765432094,0)" xlink:href="#J"/><use transform="matrix(0.06172839506172839,0,0,0.06172839506172839,61.60493827160494,0)" xlink:href="#K"/><use transform="matrix(0.06172839506172839,0,0,0.06172839506172839,73.95061728395062,0)" xlink:href="#L"/><use transform="matrix(0.06172839506172839,0,0,0.06172839506172839,85.06172839506173,0)" xlink:href="#H"/><use transform="matrix(0.06172839506172839,0,0,0.06172839506172839,97.40740740740742,0)" xlink:href="#M"/></g><g id="q"><use transform="matrix(0.06172839506172839,0,0,0.06172839506172839,0,0)" xlink:href="#ae"/><use transform="matrix(0.06172839506172839,0,0,0.06172839506172839,6.172839506172839,0)" xlink:href="#as"/><use transform="matrix(0.06172839506172839,0,0,0.06172839506172839,19.691358024691358,0)" xlink:href="#T"/><use transform="matrix(0.06172839506172839,0,0,0.06172839506172839,32.03703703703704,0)" xlink:href="#ab"/><use transform="matrix(0.06172839506172839,0,0,0.06172839506172839,43.14814814814815,0)" xlink:href="#ak"/><use transform="matrix(0.06172839506172839,0,0,0.06172839506172839,49.320987654320994,0)" xlink:href="#ai"/><use transform="matrix(0.06172839506172839,0,0,0.06172839506172839,61.66666666666667,0)" xlink:href="#U"/><use transform="matrix(0.06172839506172839,0,0,0.06172839506172839,69.01234567901236,0)" xlink:href="#aq"/></g><g id="r"><use transform="matrix(0.06172839506172839,0,0,0.06172839506172839,0,0)" xlink:href="#at"/><use transform="matrix(0.06172839506172839,0,0,0.06172839506172839,15.987654320987653,0)" xlink:href="#T"/><use transform="matrix(0.06172839506172839,0,0,0.06172839506172839,28.333333333333332,0)" xlink:href="#ag"/><use transform="matrix(0.06172839506172839,0,0,0.06172839506172839,40.67901234567901,0)" xlink:href="#Z"/><use transform="matrix(0.06172839506172839,0,0,0.06172839506172839,53.02469135802469,0)" xlink:href="#X"/><use transform="matrix(0.06172839506172839,0,0,0.06172839506172839,57.901234567901234,0)" xlink:href="#aa"/><use transform="matrix(0.06172839506172839,0,0,0.06172839506172839,70.24691358024691,0)" xlink:href="#V"/><use transform="matrix(0.06172839506172839,0,0,0.06172839506172839,81.35802469135803,0)" xlink:href="#Y"/><use transform="matrix(0.06172839506172839,0,0,0.06172839506172839,88.70370370370371,0)" xlink:href="#Z"/><use transform="matrix(0.06172839506172839,0,0,0.06172839506172839,101.0493827160494,0)" xlink:href="#aa"/><use transform="matrix(0.06172839506172839,0,0,0.06172839506172839,113.39506172839508,0)" xlink:href="#ab"/><use transform="matrix(0.06172839506172839,0,0,0.06172839506172839,124.50617283950619,0)" xlink:href="#X"/><use transform="matrix(0.06172839506172839,0,0,0.06172839506172839,129.38271604938274,0)" xlink:href="#ac"/><use transform="matrix(0.06172839506172839,0,0,0.06172839506172839,136.7283950617284,0)" xlink:href="#ad"/></g><path fill="#282c33" d="M115-194c53 0 69 39 70 98 0 66-23 100-70 100C84 3 66-7 56-30L54 0H23l1-261h32v101c10-23 28-34 59-34zm-8 174c40 0 45-34 45-75 0-40-5-75-45-74-42 0-51 32-51 76 0 43 10 73 51 73" id="au"/><g id="s"><use transform="matrix(0.06172839506172839,0,0,0.06172839506172839,0,0)" xlink:href="#au"/><use transform="matrix(0.06172839506172839,0,0,0.06172839506172839,12.345679012345679,0)" xlink:href="#ai"/><use transform="matrix(0.06172839506172839,0,0,0.06172839506172839,24.691358024691358,0)" xlink:href="#ai"/><use transform="matrix(0.06172839506172839,0,0,0.06172839506172839,37.03703703703704,0)" xlink:href="#X"/></g><g id="t"><use transform="matrix(0.06172839506172839,0,0,0.06172839506172839,0,0)" xlink:href="#an"/><use transform="matrix(0.06172839506172839,0,0,0.06172839506172839,15.987654320987653,0)" xlink:href="#ai"/><use transform="matrix(0.06172839506172839,0,0,0.06172839506172839,28.333333333333332,0)" xlink:href="#ag"/><use transform="matrix(0.06172839506172839,0,0,0.06172839506172839,40.67901234567901,0)" xlink:href="#V"/><use transform="matrix(0.06172839506172839,0,0,0.06172839506172839,51.79012345679013,0)" xlink:href="#ak"/><use transform="matrix(0.06172839506172839,0,0,0.06172839506172839,57.96296296296297,0)" xlink:href="#U"/><use transform="matrix(0.06172839506172839,0,0,0.06172839506172839,65.30864197530865,0)" xlink:href="#ao"/><use transform="matrix(0.06172839506172839,0,0,0.06172839506172839,77.65432098765433,0)" xlink:href="#ab"/><use transform="matrix(0.06172839506172839,0,0,0.06172839506172839,88.76543209876544,0)" xlink:href="#ak"/><use transform="matrix(0.06172839506172839,0,0,0.06172839506172839,94.93827160493828,0)" xlink:href="#Y"/><use transform="matrix(0.06172839506172839,0,0,0.06172839506172839,102.28395061728396,0)" xlink:href="#ac"/><use transform="matrix(0.06172839506172839,0,0,0.06172839506172839,109.62962962962965,0)" xlink:href="#ad"/></g><g id="u"><use transform="matrix(0.06172839506172839,0,0,0.06172839506172839,0,0)" xlink:href="#S"/><use transform="matrix(0.06172839506172839,0,0,0.06172839506172839,18.456790123456788,0)" xlink:href="#ai"/><use transform="matrix(0.06172839506172839,0,0,0.06172839506172839,30.80246913580247,0)" xlink:href="#Z"/><use transform="matrix(0.06172839506172839,0,0,0.06172839506172839,43.148148148148145,0)" xlink:href="#ao"/><use transform="matrix(0.06172839506172839,0,0,0.06172839506172839,55.49382716049382,0)" xlink:href="#X"/><use transform="matrix(0.06172839506172839,0,0,0.06172839506172839,60.37037037037037,0)" xlink:href="#aa"/><use transform="matrix(0.06172839506172839,0,0,0.06172839506172839,72.71604938271605,0)" xlink:href="#as"/><use transform="matrix(0.06172839506172839,0,0,0.06172839506172839,86.23456790123457,0)" xlink:href="#T"/><use transform="matrix(0.06172839506172839,0,0,0.06172839506172839,98.58024691358025,0)" xlink:href="#ab"/><use transform="matrix(0.06172839506172839,0,0,0.06172839506172839,109.69135802469137,0)" xlink:href="#ak"/><use transform="matrix(0.06172839506172839,0,0,0.06172839506172839,115.8641975308642,0)" xlink:href="#ai"/><use transform="matrix(0.06172839506172839,0,0,0.06172839506172839,128.20987654320987,0)" xlink:href="#U"/><use transform="matrix(0.06172839506172839,0,0,0.06172839506172839,135.55555555555554,0)" xlink:href="#aq"/></g><path fill="#282c33" d="M115-194c55 1 70 41 70 98S169 2 115 4C84 4 66-9 55-30l1 105H24l-1-265h31l2 30c10-21 28-34 59-34zm-8 174c40 0 45-34 45-75s-6-73-45-74c-42 0-51 32-51 76 0 43 10 73 51 73" id="av"/><g id="v"><use transform="matrix(0.06172839506172839,0,0,0.06172839506172839,0,0)" xlink:href="#ap"/><use transform="matrix(0.06172839506172839,0,0,0.06172839506172839,12.28395061728395,0)" xlink:href="#aq"/><use transform="matrix(0.06172839506172839,0,0,0.06172839506172839,23.39506172839506,0)" xlink:href="#av"/><use transform="matrix(0.06172839506172839,0,0,0.06172839506172839,35.74074074074074,0)" xlink:href="#aa"/><use transform="matrix(0.06172839506172839,0,0,0.06172839506172839,48.08641975308642,0)" xlink:href="#as"/><use transform="matrix(0.06172839506172839,0,0,0.06172839506172839,61.60493827160494,0)" xlink:href="#T"/><use transform="matrix(0.06172839506172839,0,0,0.06172839506172839,73.95061728395062,0)" xlink:href="#ab"/><use transform="matrix(0.06172839506172839,0,0,0.06172839506172839,85.06172839506173,0)" xlink:href="#ak"/><use transform="matrix(0.06172839506172839,0,0,0.06172839506172839,91.23456790123457,0)" xlink:href="#ai"/><use transform="matrix(0.06172839506172839,0,0,0.06172839506172839,103.58024691358025,0)" xlink:href="#U"/><use transform="matrix(0.06172839506172839,0,0,0.06172839506172839,110.92592592592594,0)" xlink:href="#aq"/></g><g id="w"><use transform="matrix(0.06172839506172839,0,0,0.06172839506172839,0,0)" xlink:href="#S"/><use transform="matrix(0.06172839506172839,0,0,0.06172839506172839,18.456790123456788,0)" xlink:href="#aa"/><use transform="matrix(0.06172839506172839,0,0,0.06172839506172839,30.80246913580247,0)" xlink:href="#ak"/><use transform="matrix(0.06172839506172839,0,0,0.06172839506172839,36.97530864197531,0)" xlink:href="#W"/><use transform="matrix(0.06172839506172839,0,0,0.06172839506172839,49.32098765432099,0)" xlink:href="#ai"/><use transform="matrix(0.06172839506172839,0,0,0.06172839506172839,61.666666666666664,0)" xlink:href="#Z"/><use transform="matrix(0.06172839506172839,0,0,0.06172839506172839,74.01234567901234,0)" xlink:href="#as"/><use transform="matrix(0.06172839506172839,0,0,0.06172839506172839,87.53086419753086,0)" xlink:href="#T"/><use transform="matrix(0.06172839506172839,0,0,0.06172839506172839,99.87654320987654,0)" xlink:href="#ab"/><use transform="matrix(0.06172839506172839,0,0,0.06172839506172839,110.98765432098766,0)" xlink:href="#ak"/><use transform="matrix(0.06172839506172839,0,0,0.06172839506172839,117.1604938271605,0)" xlink:href="#ai"/><use transform="matrix(0.06172839506172839,0,0,0.06172839506172839,129.50617283950618,0)" xlink:href="#U"/><use transform="matrix(0.06172839506172839,0,0,0.06172839506172839,136.85185185185185,0)" xlink:href="#aq"/></g><g id="x"><use transform="matrix(0.06234567901234567,0,0,0.06234567901234567,0,0)" xlink:href="#ab"/><use transform="matrix(0.06234567901234567,0,0,0.06234567901234567,11.22222222222222,0)" xlink:href="#U"/><use transform="matrix(0.06234567901234567,0,0,0.06234567901234567,18.641358024691353,0)" xlink:href="#aa"/><use transform="matrix(0.06234567901234567,0,0,0.06234567901234567,31.110493827160486,0)" xlink:href="#T"/><use transform="matrix(0.06234567901234567,0,0,0.06234567901234567,43.57962962962962,0)" xlink:href="#ak"/><use transform="matrix(0.06234567901234567,0,0,0.06234567901234567,49.81419753086419,0)" xlink:href="#aa"/><use transform="matrix(0.06234567901234567,0,0,0.06234567901234567,62.283333333333324,0)" xlink:href="#V"/></g><g id="y"><use transform="matrix(0.06172839506172839,0,0,0.06172839506172839,0,0)" xlink:href="#S"/><use transform="matrix(0.06172839506172839,0,0,0.06172839506172839,18.456790123456788,0)" xlink:href="#ai"/><use transform="matrix(0.06172839506172839,0,0,0.06172839506172839,30.80246913580247,0)" xlink:href="#Z"/><use transform="matrix(0.06172839506172839,0,0,0.06172839506172839,43.148148148148145,0)" xlink:href="#ao"/><use transform="matrix(0.06172839506172839,0,0,0.06172839506172839,55.49382716049382,0)" xlink:href="#X"/><use transform="matrix(0.06172839506172839,0,0,0.06172839506172839,60.37037037037037,0)" xlink:href="#aa"/><use transform="matrix(0.06172839506172839,0,0,0.06172839506172839,72.71604938271605,0)" xlink:href="#at"/><use transform="matrix(0.06172839506172839,0,0,0.06172839506172839,88.70370370370371,0)" xlink:href="#T"/><use transform="matrix(0.06172839506172839,0,0,0.06172839506172839,101.0493827160494,0)" xlink:href="#ag"/><use transform="matrix(0.06172839506172839,0,0,0.06172839506172839,113.39506172839508,0)" xlink:href="#Z"/><use transform="matrix(0.06172839506172839,0,0,0.06172839506172839,125.74074074074076,0)" xlink:href="#X"/><use transform="matrix(0.06172839506172839,0,0,0.06172839506172839,130.6172839506173,0)" xlink:href="#aa"/><use transform="matrix(0.06172839506172839,0,0,0.06172839506172839,142.96296296296296,0)" xlink:href="#U"/></g><g id="z"><use transform="matrix(0.06172839506172839,0,0,0.06172839506172839,0,0)" xlink:href="#ap"/><use transform="matrix(0.06172839506172839,0,0,0.06172839506172839,12.28395061728395,0)" xlink:href="#aq"/><use transform="matrix(0.06172839506172839,0,0,0.06172839506172839,23.39506172839506,0)" xlink:href="#av"/><use transform="matrix(0.06172839506172839,0,0,0.06172839506172839,35.74074074074074,0)" xlink:href="#aa"/><use transform="matrix(0.06172839506172839,0,0,0.06172839506172839,48.08641975308642,0)" xlink:href="#at"/><use transform="matrix(0.06172839506172839,0,0,0.06172839506172839,64.07407407407408,0)" xlink:href="#T"/><use transform="matrix(0.06172839506172839,0,0,0.06172839506172839,76.41975308641976,0)" xlink:href="#ag"/><use transform="matrix(0.06172839506172839,0,0,0.06172839506172839,88.76543209876544,0)" xlink:href="#Z"/><use transform="matrix(0.06172839506172839,0,0,0.06172839506172839,101.11111111111113,0)" xlink:href="#X"/><use transform="matrix(0.06172839506172839,0,0,0.06172839506172839,105.98765432098767,0)" xlink:href="#aa"/><use transform="matrix(0.06172839506172839,0,0,0.06172839506172839,118.33333333333336,0)" xlink:href="#U"/></g><g id="A"><use transform="matrix(0.06172839506172839,0,0,0.06172839506172839,0,0)" xlink:href="#S"/><use transform="matrix(0.06172839506172839,0,0,0.06172839506172839,18.456790123456788,0)" xlink:href="#aa"/><use transform="matrix(0.06172839506172839,0,0,0.06172839506172839,30.80246913580247,0)" xlink:href="#ak"/><use transform="matrix(0.06172839506172839,0,0,0.06172839506172839,36.97530864197531,0)" xlink:href="#W"/><use transform="matrix(0.06172839506172839,0,0,0.06172839506172839,49.32098765432099,0)" xlink:href="#ai"/><use transform="matrix(0.06172839506172839,0,0,0.06172839506172839,61.666666666666664,0)" xlink:href="#Z"/><use transform="matrix(0.06172839506172839,0,0,0.06172839506172839,74.01234567901234,0)" xlink:href="#at"/><use transform="matrix(0.06172839506172839,0,0,0.06172839506172839,90,0)" xlink:href="#T"/><use transform="matrix(0.06172839506172839,0,0,0.06172839506172839,102.34567901234568,0)" xlink:href="#ag"/><use transform="matrix(0.06172839506172839,0,0,0.06172839506172839,114.69135802469137,0)" xlink:href="#Z"/><use transform="matrix(0.06172839506172839,0,0,0.06172839506172839,127.03703703703705,0)" xlink:href="#X"/><use transform="matrix(0.06172839506172839,0,0,0.06172839506172839,131.9135802469136,0)" xlink:href="#aa"/><use transform="matrix(0.06172839506172839,0,0,0.06172839506172839,144.25925925925927,0)" xlink:href="#U"/></g><g id="B"><use transform="matrix(0.06234567901234567,0,0,0.06234567901234567,0,0)" xlink:href="#C"/><use transform="matrix(0.06234567901234567,0,0,0.06234567901234567,4.925308641975308,0)" xlink:href="#aj"/><use transform="matrix(0.06234567901234567,0,0,0.06234567901234567,23.566666666666663,0)" xlink:href="#av"/><use transform="matrix(0.06234567901234567,0,0,0.06234567901234567,36.035802469135795,0)" xlink:href="#X"/><use transform="matrix(0.06234567901234567,0,0,0.06234567901234567,40.9611111111111,0)" xlink:href="#aa"/><use transform="matrix(0.06234567901234567,0,0,0.06234567901234567,53.430246913580234,0)" xlink:href="#aj"/><use transform="matrix(0.06234567901234567,0,0,0.06234567901234567,72.07160493827159,0)" xlink:href="#aa"/><use transform="matrix(0.06234567901234567,0,0,0.06234567901234567,84.54074074074072,0)" xlink:href="#ag"/><use transform="matrix(0.06234567901234567,0,0,0.06234567901234567,97.00987654320986,0)" xlink:href="#ak"/><use transform="matrix(0.06234567901234567,0,0,0.06234567901234567,103.24444444444443,0)" xlink:href="#V"/></g></defs></g></svg>